<?xml version="1.0" standalone="no"?>
<!DOCTYPE svg PUBLIC "-//W3C//DTD SVG 1.1//EN" "http://www.w3.org/Graphics/SVG/1.1/DTD/svg11.dtd" >
<!--
2013-9-30: Created.
-->
<svg>
<metadata>
Created by iconfont
</metadata>
<defs>

<font id="iconfont" horiz-adv-x="1024" >
  <font-face
    font-family="iconfont"
    font-weight="500"
    font-stretch="normal"
    units-per-em="1024"
    ascent="896"
    descent="-128"
  />
    <missing-glyph />
    
    <glyph glyph-name="to-max" unicode="&#58896;" d="M199.61904762 120.10666666999998L395.15142857 315.63809524a7.61904762 7.61904762 0 0 0 10.77428572 0l37.71238095-37.71238095a7.61904762 7.61904762 0 0 0 0-10.77428573L248.10666667 71.61904761999995H390.09523811c8.41619047 0 15.23809525-6.82190476 15.23809522-15.23809523v-45.71428572a7.61904762 7.61904762 0 0 0-7.61904762-7.61904762H161.52380952c-16.83142858 0-30.47619048 13.64476189-30.47619047 30.47619047V269.71428571a7.61904762 7.61904762 0 0 0 7.61904762 7.61904762h45.71428572c8.41619047 0 15.23809525-6.82190476 15.23809523-15.23809522v-141.98857144z m624.76190476 528.02095238L628.73238096 452.47809524a7.61904762 7.61904762 0 0 0-10.7752381 0L580.24476191 490.19047619a7.61904762 7.61904762 0 0 0 0 10.7752381L775.66 696.38095238H633.90476189c-8.41619047 0-15.23809525 6.82190476-15.23809522 15.23809523v45.71428572a7.61904762 7.61904762 0 0 0 7.61904762 7.61904762h236.19047619c16.83142858 0 30.47619048-13.64476189 30.47619047-30.47619047v-236.19047619a7.61904762 7.61904762 0 0 0-7.61904762-7.61904762h-45.71428572c-8.41619047 0-15.23809525 6.82190476-15.23809523 15.23809522V648.12761905z"  horiz-adv-x="1024" />

    
    <glyph glyph-name="to-min" unicode="&#59051;" d="M200.72133757 349.32486773000005H442.64973545l2.60063492-0.1040254 4.36906666-0.58947725 3.84893969-1.04025397 3.84893968-1.52570582 3.39816297-1.80310688 3.32881269-2.32323386 3.12076191-2.77401058c1.24830476-1.21362963 2.357909-2.53128465 3.36348783-3.88361481l2.46193439-3.81426456 1.87245714-3.95296508 1.21362964-3.64088889 1.04025396-5.20126984L477.32486773 314.64973545v-242.86462645a34.67513227 34.67513227 0 0 0-69.10753863-4.02231535L407.97460317 71.78510900000003v159.15885714l-218.21060741-218.21060741a34.67513227 34.67513227 0 0 0-51.90867301 45.7711746l2.87803598 3.25946243L358.87461587 279.97460317h-158.11860317a34.67513227 34.67513227 0 0 0-34.46708148 30.6181418L166.04620529 314.64973545a34.67513227 34.67513227 0 0 0 30.65281693 34.43240635L200.72133757 349.32486773000005zM883.26664127 755.26664127a34.67513227 34.67513227 0 0 0 2.87803598-45.7711746l-2.87803598-3.25946243L665.090709 488.02539683l158.18795343-0.03467513a34.67513227 34.67513227 0 0 0 34.43240635-30.61814181l0.24272593-4.05699048a34.67513227 34.67513227 0 0 0-30.65281693-34.43240634l-4.02231535-0.24272593-244.5290328 0.1040254-4.36906666 0.58947725-3.84893969 1.04025397-3.84893968 1.52570581-3.39816297 1.80310689-3.32881269 2.32323386-3.12076191 2.77401058a35.0218836 35.0218836 0 0 0-3.36348783 3.88361481l-2.46193439 3.81426456-1.87245714 3.95296508-1.21362964 3.64088889-1.04025396 5.20126984L546.67513227 453.35026455V696.214891a34.67513227 34.67513227 0 0 0 69.10753863 4.02231535l0.24272593-4.02231535v-159.08950687l218.21060741 218.14125714a34.67513227 34.67513227 0 0 0 49.03063703 0z"  horiz-adv-x="1024" />

    
    <glyph glyph-name="refresh" unicode="&#58901;" d="M217.7421875 446.86588542C224.94921875 598.12565105 350.89648437 718.62369792 505.14453124 718.62369792 664.05078125 718.62369792 792.8984375 590.8307291599999 792.8984375 433.0670573c0-153.01757813-121.37695313-277.99804688-273.77929689-285.20507813l1e-8 135.79101563-301.46484374-163.12500001L519.03125-69.75520831999995l0 135.96679688C716.87304688 73.50651041000003 874.98828125 234.96158853999998 874.98828125 433.0670573c0 202.76367187-165.67382813 367.11914063-369.93164063 367.11914062-199.6875 0-362.37304688-156.97265625-369.66796874-353.3203125l82.35351562 0z m0 0"  horiz-adv-x="1024" />

    
    <glyph glyph-name="location" unicode="&#58988;" d="M538.42933334 31.81333331999997a15.888 15.888 0 0 0-12.768 14.792l-19.272 385.72-369.192 110.192a15.888 15.888 0 0 0-11.328 15.952 16.224 16.224 0 0 0 12.568 15.168l738.704 170.632c5.816 1.392 11.136-1.304 14.92-5.528 0.2-0.152 0.472-0.072 0.664-0.248 0.336-0.24 0.344-0.76 0.64-1.072 0.504-0.704 1.432-0.992 1.8-1.816 0.224-0.408-0.024-0.92 0.152-1.344 2.928-4.664 4.16-10.208 1.544-15.384l-340.72-678.416a16.208 16.208 0 0 0-17.712-8.648zM204.87733334 556.00533332l312.432-93.208 297.064 234.048-609.496-140.84z"  horiz-adv-x="1024" />

    
    <glyph glyph-name="tag" unicode="&#59080;" d="M442.28571429 3.0476190499999802c-17.71428571 0-32.95238094 6.28571429-45.23809524 18.66666666L149.71428571 268.47619048c-12.38095239 13.14285714-18.66666667 28.28571429-18.66666666 45.80952381 0 17.71428571 6.28571429 32.95238094 18.66666666 45.23809523l360 359.61904761c12.38095239 12.66666667 29.33333334 23.52380952 50.76190477 32.47619049 21.42857143 8.95238095 40.95238095 13.33333333 58.85714285 13.33333332L828.57142857 764.95238095c17.42857144 0 32.47619048-6.38095238 45.23809524-19.14285714 12.66666667-12.66666667 19.14285714-27.80952381 19.14285714-45.23809524l-1e-8-209.23809524c0-17.71428571-4.47619048-37.33333333-13.33333332-58.85714285-8.85714286-21.42857143-19.61904762-38.47619048-32.47619049-51.23809524l-359.04761903-359.61904762c-13.04761905-12.38095238-28.38095238-18.57142857-45.80952381-18.57142857zM686.38095238 558.38095238c12.57142857-12.57142857 27.71428571-18.85714286 45.42857143-18.85714286s32.95238094 6.28571429 45.42857144 18.85714286c12.57142857 12.57142857 18.85714286 27.71428571 18.85714285 45.42857143s-6.28571429 32.95238094-18.85714286 45.42857143-27.71428571 18.85714286-45.42857143 18.85714286-32.95238094-6.28571429-45.42857143-18.85714285c-12.57142857-12.57142857-18.85714286-27.71428571-18.85714286-45.42857144 0.0952381-17.71428571 6.47619048-32.76190476 18.85714286-45.42857143z"  horiz-adv-x="1024" />

    
    <glyph glyph-name="category" unicode="&#58893;" d="M137.00091581 620.36893878c0-12.44848468 5.12349236-24.82126615 13.92514372-33.62291837 8.8025221-8.80165136 21.17530273-13.9260136 33.62378826-13.9260136 12.45283589 0 24.82561735 5.12436223 33.62726872 13.9260136 8.80165136 8.80165136 13.9260136 21.17443282 13.92601359 33.62291837 0 12.44935544-5.12436223 24.82126615-13.92601359 33.6281386-8.80165136 8.80165136-21.17443282 13.92514372-33.62726872 13.92514371-12.44935544 0-24.82126615-5.12349236-33.62378826-13.92514371C142.12527807 645.1902057899999 137.00091581 632.81742431 137.00091581 620.36893878L137.00091581 620.36893878zM137.00091581 620.36893878M130.98116071 384.71788096c0-12.46327807 5.13132398-24.8482415 13.94080699-33.66120494 8.81470408-8.80948299 21.19792687-13.94167687 33.66207481-13.94167687 12.46066752 0 24.8482415 5.13219388 33.6577245 13.94167687 8.81296343 8.81296343 13.94167687 21.19792687 13.94167687 33.66120494 0 12.46066752-5.12871344 24.8482415-13.94167687 33.65859438-8.80948299 8.81296343-21.19705697 13.94080698-33.6577245 13.94080698-12.46501786 0-24.8482415-5.12784269-33.66207481-13.94080698C136.11248469 409.56612159 130.98116071 397.17941836 130.98116071 384.71788096L130.98116071 384.71788096zM130.98116071 384.71788096M130.98116071 147.86339285999998c0-12.46501786 5.13132398-24.8491114 13.94080699-33.66207484 8.81470408-8.81296343 21.19792687-13.94080698 33.66207481-13.94080696 12.46066752 0 24.8482415 5.12784269 33.6577245 13.94080696 8.81296343 8.81296343 13.94167687 21.19792687 13.94167687 33.66207483 0 12.45979677-5.12871344 24.8438903-13.94167687 33.6577245-8.80948299 8.81296343-21.19705697 13.94167687-33.6577245 13.94167687-12.46501786 0-24.8482415-5.12871344-33.66207481-13.94167687C136.11248469 172.70728401999997 130.98116071 160.32231973 130.98116071 147.86339285999998L130.98116071 147.86339285999998zM130.98116071 147.86339285999998M892.36273979 622.5765306200001c0-25.08144388-18.61007653-45.34482058-41.63272533-45.34482059L357.15184438 577.2317100299999c-23.02264881 0-41.68319473 20.31645663-41.68319472 45.34482059l0 0c0 25.03184439 18.61094643 45.34482058 41.68319473 45.34482057l493.52770154 0C873.75266326 667.92222194 892.36273979 647.60924575 892.36273979 622.5765306200001L892.36273979 622.5765306200001 892.36273979 622.5765306200001zM892.36273979 622.5765306200001M892.36273979 386.87239286c0-25.02749405-18.61007653-45.34482058-41.63272533-45.34482058L357.15184438 341.52757142999997c-23.02264881 0-41.68319473 20.31819728-41.68319472 45.34482059l0 0c0 25.08231378 18.61094643 45.34569133 41.68319473 45.34569131l493.52770154 0C873.75266326 432.26768281 892.36273979 411.95470663 892.36273979 386.87239286L892.36273979 386.87239286 892.36273979 386.87239286zM892.36273979 386.87239286M892.36273979 150.16583247999995c0-25.07796344-18.61007653-45.39528997-41.63272533-45.39528996L357.15184438 104.77054166000005c-23.02264881 0-41.68319473 20.31645663-41.68319472 45.39528997l0 0c0 24.98224575 18.61094643 45.29609183 41.68319473 45.29609184l493.52770154 0C873.75266326 195.46192431999998 892.36273979 175.14807738000002 892.36273979 150.16583247999995L892.36273979 150.16583247999995 892.36273979 150.16583247999995zM892.36273979 150.16583247999995"  horiz-adv-x="1024" />

    
    <glyph glyph-name="xiangzuo" unicode="&#59056;" d="M643.04576037 769.81364823L286.04509525 409.46628663c-0.53310169-0.53310169-0.71080252-1.24390503-1.1550542-1.77700672-0.08885001-0.08885001-0.35540167-0.17770084-0.44425168-0.26655084-12.70559866-12.79444867-12.61674865-33.49657837 0.17770084-46.20217703l360.28812771-357.00066513c12.79444867-12.70559866 33.40772753-12.61674865 46.1133262 0.17770084 6.24914044 6.33799127 9.41813607 14.71953927 9.41813609 23.0122381 0 8.38154883-3.25784565 16.82233072-9.68468693 23.18993893L353.48250367 384.85474266l335.85428456 339.02327938c6.24914044 6.33799127 9.41813607 14.63068927 9.41813609 23.0122381 0 8.47039883-3.25784565 16.82233072-9.68468692 23.18993894C676.45348874 782.78579774 655.75135903 782.6080969 643.04576037 769.81364823L643.04576037 769.81364823z"  horiz-adv-x="1024" />

    
    <glyph glyph-name="see" unicode="&#59027;" d="M897.01384603 393.29588379c-28.78374023 76.83108398-79.63193848 142.46336426-146.83214356 189.83979492-68.87979492 48.49584961-149.85632813 74.25632812-234.41629394 74.25632813s-165.53557617-25.64789062-234.41629395-74.25632813c-67.31279298-47.4880957-118.04840332-113.11945313-146.83214355-189.83979492l-3.58435547-9.40754883 3.58435547-9.40754883c28.78374023-76.83108398 79.63193848-142.46336426 146.83214355-189.83979492 68.87979492-48.49584961 149.85632813-74.25632812 234.41629395-74.25632812s165.53557617 25.64789062 234.41629394 74.25632812c67.31279298 47.4880957 118.04840332 113.11945313 146.83214356 189.83979492l3.58435546 9.40754883-3.58435546 9.40754883zM515.76540853 164.03279296000005c-143.13612305 0-273.2803418 87.91914551-327.26438965 219.74387696 53.87145996 131.93547363 184.1282666 219.74387695 327.26438965 219.74387696 143.13612305 0 273.2803418-87.91914551 327.26438963-219.74387696-53.98404785-131.82473145-184.24085449-219.74387695-327.26438963-219.74387696zM515.76540853 526.12836914c-78.40085449 0-142.24003418-63.84010254-142.24003418-142.24003418s63.84010254-142.24003418 142.24003418-142.24003419 142.24003418 63.84010254 142.24003418 142.24003419-63.84010254 142.24003418-142.24003418 142.24003418zM515.76540853 295.4080957c-48.83176758 0-88.48023926 39.64754883-88.48023926 88.48023926s39.64754883 88.48023926 88.48023926 88.48023927 88.48023926-39.64754883 88.48023925-88.48023927-39.76013671-88.48023926-88.48023925-88.48023926z"  horiz-adv-x="1024" />

    
    <glyph glyph-name="like" unicode="&#58938;" d="M812.38818359 475.36230469H601.97802734c-1.38427734 0-2.76855469 1.38427734-2.76855468 4.15283203l37.37548828 131.50634765c6.92138672 24.91699219 4.15283203 51.21826172-8.30566406 73.36669922S595.05664063 724.53222656 570.13964844 731.45361328c-24.91699219 6.92138672-51.21826172 4.15283203-73.36669922-8.30566406s-38.75976563-33.22265625-45.68115235-58.13964844l-19.37988281-67.82958984c-20.76416016-70.59814453-85.82519531-120.43212891-159.19189453-120.43212891h-59.52392578c-45.68115234 0-83.05664063-37.37548828-83.05664062-83.05664062v-276.85546875c0-45.68115234 37.37548828-83.05664063 83.05664062-83.05664063h530.17822266c38.75976563 0 71.98242188 26.30126953 80.28808593 62.29248047l69.21386719 276.85546875c1.38427734 6.92138672 2.76855469 13.84277344 2.76855469 20.76416016 0 45.68115234-37.37548828 81.67236328-83.05664063 81.67236328z m-600.77636718-387.59765625c-15.22705078 0-27.68554688 12.45849609-27.68554688 27.68554687v276.85546875c0 15.22705078 12.45849609 27.68554688 27.68554688 27.68554688h69.21386718v-332.2265625h-69.21386718z m627.07763672 299.00390625l-69.21386719-276.85546875c-2.76855469-12.45849609-13.84277344-20.76416016-26.30126953-20.76416016H336.19677734V431.06542969c69.21386719 22.1484375 125.96923828 77.51953125 146.73339844 150.88623047l19.37988281 67.82958984c2.76855469 11.07421875 9.68994141 19.37988281 19.37988282 24.91699219 9.68994141 5.53710938 20.76416016 6.92138672 31.8383789 4.15283203 11.07421875-2.76855469 19.37988281-9.68994141 24.91699219-19.37988281 5.53710938-9.68994141 6.92138672-20.76416016 4.15283203-31.83837891L545.22265625 494.7421875c-1.38427734-5.53710938-2.76855469-11.07421875-2.76855469-16.61132813 0-31.83837891 26.30126953-58.13964844 58.13964844-58.13964843h210.41015625c15.22705078 0 27.68554688-12.45849609 27.68554688-27.68554688 1.38427734-1.38427734 0-4.15283203-1e-8-5.53710937z"  horiz-adv-x="1024" />

    
    <glyph glyph-name="feed" unicode="&#58881;" d="M736.48144531-9.488085940000019H229.41669922c-46.63388672 0-84.48310547 37.85185547-84.48310547 84.4875V638.23242187c0 46.63125 37.84921875 84.48222656 84.48310547 84.48222657h394.26416016c15.59619141 0 28.16279297-12.56572266 28.16279296-28.16015625 0-15.59707031-12.56835938-28.16279297-28.16279297-28.16279297H229.41669922c-15.44238281 0-28.16191406-12.71777344-28.16191406-28.16015625v-563.23388672c0-15.59619141 12.71953125-28.16367188 28.16191406-28.16367188h506.9109375c15.59619141 0 28.16279297 12.56835938 28.16279297 28.16367188v450.73828125c0 15.59355469 12.56660156 28.16015625 28.16015625 28.16015625 15.59619141 0 28.16279297-12.56660156 28.16279297-28.16015625V75.15234375c0.14941406-46.63740234-37.85097656-84.63867188-84.3319336-84.63867188z m0 0M570.9921875 441.25019531c-7.26679687 0-14.38417969 2.72460938-19.98457031 8.32851563a28.05117188 28.05117188 0 0 0 0 39.81972656L830.95683594 769.19824219a28.04941406 28.04941406 0 0 0 39.81884765 0 28.05117188 28.05117188 0 0 0 0-39.81972656l-279.94921875-279.94921875c-5.44921875-5.45361328-12.71777344-8.17822266-19.83427734-8.17822266z m0 0M454.71025391 441.25019531h-168.96972657c-15.59179688 0-28.16103516 12.56660156-28.16103515 28.16279297 0 15.59267578 12.56835938 28.16015625 28.16103515 28.16015625h168.96972657c15.59794922 0 28.16279297-12.56748047 28.16279297-28.16015625-0.00087891-15.59619141-12.56572266-28.16279297-28.16279297-28.16279297z m0 0M623.83378906 272.28046874999995H285.74052734c-15.59179688 0-28.16103516 12.56660156-28.16103515 28.16279297 0 15.59355469 12.56835938 28.16015625 28.16103515 28.16015625h337.93945313c15.59707031 0 28.16367188-12.56660156 28.16367187-28.16015625 0-15.59619141-12.56660156-28.16279297-28.00986328-28.16279297z m0 0"  horiz-adv-x="1024" />

    
    <glyph glyph-name="close" unicode="&#58898;" d="M574.84867724 385.30031746l276.20910054 276.42582011c17.77100528 17.87936508 17.77100528 46.594709 0 64.47407407s-46.594709 17.87936508-64.47407408 0L510.37460317 449.77439153 234.38222222 726.20021164c-17.77100528 17.87936508-46.594709 17.87936508-64.47407407 0-17.77100528-17.87936508-17.77100528-46.594709 0-64.47407407l276.20910052-276.42582011-276.20910052-276.31746032c-17.77100528-17.87936508-17.77100528-46.594709 0-64.47407407 8.77714285-8.88550265 20.48-13.43661376 32.18285714-13.43661375s23.29735449 4.44275133 32.18285714 13.43661375l275.99238095 276.31746031 276.10074074-276.31746031c8.77714285-8.88550265 20.58835979-13.43661376 32.18285715-13.43661375 11.70285714 0 23.29735449 4.44275133 32.07449735 13.43661375 17.77100528 17.87936508 17.77100528 46.594709 0 64.47407407L574.84867724 385.30031746z m0 0"  horiz-adv-x="1024" />

    
    <glyph glyph-name="send-fill" unicode="&#58880;" d="M127.60563016 4.938963489999992l79.95402893 355.94918648 442.05352531 27.67639462-442.05352531 29.98276084-79.95402893 355.18039774 768.78873968-384.39436984z"  horiz-adv-x="1024" />

    
    <glyph glyph-name="delete" unicode="&#58900;" d="M359.80066567 130.20044907c14.01120105 0 25.34706986 11.33677723 25.34706986 25.34706985V434.36474953c0 14.01029262-11.33677723 25.34706986-25.34706986 25.34706986-14.01029262 0-25.34706986-11.33768567-25.34706985-25.34706986v-278.81821898C334.45359582 141.53622701999996 345.79037305 130.20044907 359.80066567 130.20044907zM511.8837207 130.20044907c14.01120105 0 25.34706986 11.33677723 25.34706986 25.34706985V434.36474953c0 14.01029262-11.33677723 25.34706986-25.34706986 25.34706986s-25.34706986-11.33768567-25.34706985-25.34706986v-278.81821898C486.53574241 141.53622701999996 497.87251965 130.20044907 511.8837207 130.20044907zM663.96586731 130.20044907c14.01120105 0 25.34706986 11.33677723 25.34706984 25.34706985V434.36474953c0 14.01029262-11.33677723 25.34706986-25.34706984 25.34706986s-25.34706986-11.33768567-25.34706986-25.34706986v-278.81821898C638.61888829 141.53622701999996 649.95466624 130.20044907 663.96586731 130.20044907zM790.70103489 713.18296488H685.72313c-11.33677723 43.61500161-50.69404887 76.04111873-97.79924624 76.04111872H435.84171172c-47.10519738 0-86.46246902-32.42611711-97.79924624-76.04111872H233.06550172c-55.91635195 0-101.38809774-45.49681851-101.38809774-101.38809773v-25.34795649h25.34702625v-25.34702625h50.6940525v-481.59442898c0-55.89218765 45.47174579-101.38809774 101.38809774-101.38809774h405.55335023c55.91825965 0 101.38809774 45.49591008 101.38809774 101.38809774V561.10081102h50.6940525v25.34702625h25.34702625v25.34795648C892.08913262 667.6870548100001 846.61929454 713.18296488 790.70103489 713.18296488zM435.84169355 738.53003474h152.0821575c18.66328137 0 34.85217563-10.27254913 43.64007433-25.34706986H392.20255672C400.99051719 728.25739476 417.17841219 738.53003474 435.84169355 738.53003474zM765.35396503 79.50640020000003c0-27.97025812-22.74704661-50.69404887-50.69404887-50.69404886H309.10658047c-27.94609383 0-54.20849977 22.72379075-54.20849977 50.69404886l3.5144509 481.59441808h506.94145524V79.50638203000005zM182.37054079 611.7948671500001c0 27.97025812 22.74886347 50.69404887 50.69404887 50.69404887H790.70100945c27.94800154 0 50.69404887-22.72379075 50.69404887-50.69404887H182.37051898z"  horiz-adv-x="1024" />

    
    <glyph glyph-name="confirm" unicode="&#58904;" d="M426.10133333 83.43253332999996c-12.12266667 0-23.8208 4.66986667-32.62826666 13.10506667l-251.19466667 240.57066667c-18.816 18.02026667-19.46133333 47.88373333-1.44 66.69653333 18.02026667 18.816 47.88373333 19.46133333 66.7008 1.44106667l214.45866667-205.3888 389.0048 472.71573333c16.5536 20.11733333 46.28266667 23.0048 66.4032 6.45226667 20.1184-16.5536 23.00586667-46.28266667 6.4512-66.40106667l-421.3248-511.99253333c-8.3424-10.1376-20.5312-16.34026667-33.63626667-17.1168-0.93226667-0.05546667-1.86453333-0.0832-2.79573333-0.0832z"  horiz-adv-x="1024" />

    
    <glyph glyph-name="movie" unicode="&#58894;" d="M523.395538 506.923634c-53.497425 0-97.019661 43.522236-97.019661 97.019661s43.522236 97.019661 97.019661 97.019661c53.497425 0 97.020684-43.522236 97.020684-97.019661S576.892963 506.923634 523.395538 506.923634zM523.395538 667.207154c-34.883485 0-63.263859-28.380374-63.263859-63.263859s28.380374-63.263859 63.263859-63.263859c34.884508 0 63.264882 28.380374 63.264882 63.263859S558.280046 667.207154 523.395538 667.207154zM523.395538 105.01705400000003c-53.497425 0-97.019661 43.522236-97.019661 97.019661 0 53.497425 43.522236 97.020684 97.019661 97.020684 53.497425 0 97.020684-43.522236 97.020684-97.020684C620.415198 148.53929000000005 576.892963 105.01705400000003 523.395538 105.01705400000003zM523.395538 265.301598c-34.883485 0-63.263859-28.380374-63.263859-63.264882s28.380374-63.263859 63.263859-63.263859c34.884508 0 63.264882 28.379351 63.264882 63.263859S558.280046 265.301598 523.395538 265.301598zM336.022033 300.40714c-53.497425 0-97.020684 43.522236-97.020684 97.020684 0 53.497425 43.523259 97.019661 97.020684 97.019661s97.020684-43.522236 97.020684-97.019661C433.041694 343.92937600000005 389.519458 300.40714 336.022033 300.40714zM336.022033 460.69066c-34.883485 0-63.264882-28.380374-63.264882-63.263859 0-34.884508 28.380374-63.264882 63.264882-63.264882 34.884508 0 63.264882 28.380374 63.264882 63.264882C399.286915 432.310286 370.906541 460.69066 336.022033 460.69066zM710.334137 300.40714c-53.497425 0-97.020684 43.522236-97.020684 97.020684 0 53.497425 43.522236 97.019661 97.020684 97.019661 53.496401 0 97.019661-43.522236 97.019661-97.019661C807.353798 343.92937600000005 763.831562 300.40714 710.334137 300.40714zM710.334137 460.69066c-34.884508 0-63.264882-28.380374-63.264882-63.263859 0-34.884508 28.380374-63.264882 63.264882-63.264882s63.263859 28.380374 63.263859 63.264882C773.59902 432.310286 745.218646 460.69066 710.334137 460.69066zM899.214972 10.787950000000023L521.451256 10.787950000000023c-52.628638 0-103.696734 10.31288-151.783938 30.652114-46.434565 19.640316-88.132246 47.75156-123.93466 83.553974-35.802414 35.801391-63.913659 77.500095-83.553974 123.93466-20.339234 48.087205-30.652114 99.154277-30.652114 151.783938 0 52.628638 10.31288 103.696734 30.652114 151.783938 19.640316 46.434565 47.752584 88.132246 83.553974 123.93466 35.802414 35.802414 77.500095 63.913659 123.93466 83.553974 48.087205 20.339234 99.155301 30.652114 151.784962 30.652114s103.696734-10.31288 151.783938-30.652114c46.435589-19.640316 88.13327-47.752584 123.93466-83.553974 35.802414-35.802414 63.914682-77.500095 83.553974-123.93466 20.339234-48.087205 30.652114-99.155301 30.652114-151.783938 0-56.389288-11.782348-110.798479-35.018561-161.717172-22.444175-49.180096-54.310953-92.483344-94.717222-128.705314-9.993608-8.956999-25.354458-8.118911-34.31248 1.87265-8.958022 9.992585-8.119935 25.354458 1.87265 34.31248 35.391045 31.727609 63.297628 69.644173 82.945107 112.696712 20.326954 44.540426 30.633694 92.161003 30.633694 141.540643 0 91.172489-35.503609 176.886663-99.971899 241.354953-64.46829 64.46829-150.184511 99.972922-241.355977 99.972922-91.172489 0-176.887686-35.504632-241.355977-99.972922-64.46829-64.46829-99.971899-150.182464-99.971899-241.354953s35.504632-176.886663 99.972922-241.354953 150.183488-99.972922 241.354953-99.972922l377.762693 0c13.419637 0 24.298406-10.878768 24.298406-24.298406S912.63461 10.787950000000023 899.214972 10.787950000000023z"  horiz-adv-x="1024" />

    
    <glyph glyph-name="unknown" unicode="&#58950;" d="M441.76156445 110.65457776999995l0-105.25696 105.25696 0 0 105.25696L441.76156445 110.65457776999995zM713.89639111 474.70364444c15.40323555 27.72423111 23.10940445 58.01642667 23.10940444 90.88 0 56.81834667-21.91473778 105.26264889-65.72373333 145.30901333-43.82378667 40.04636445-102.52970667 60.07466667-176.12458667 60.07466667-69.49205333 0-125.37287111-18.65955555-167.64245333-55.96501334-42.27982222-37.31683555-67.69436445-91.05863111-76.24704-161.22652443l94.98851556-11.29472c8.21248 52.36622222 25.4976 90.88 51.85536 115.5219911 26.35776 24.64995555 59.21792 36.97095111 98.58503111 36.97095112 40.73472 0 75.13656889-13.60440889 103.20896-40.81664 28.06556445-27.21564445 42.10915555-58.79466667 42.10915556-94.73820445 0-19.85536-4.80369778-38.17244445-14.38378667-54.93646222-9.58577778-16.77880889-30.37639111-39.28291555-62.38435556-67.52256s-54.16618667-49.72202667-66.49400889-64.44032c-16.77198222-20.20010667-28.92686222-40.22499555-36.45098666-60.07125333-10.27185778-26.36458667-15.40209778-57.68647111-15.40209778-93.96224 0-6.16448 0.16611555-15.40437333 0.512-27.73219556l88.82517333 0c0.68152889 36.97208889 3.24835555 63.67687111 7.70503111 80.09955556 4.44074667 16.42951111 11.29358222 30.98055111 20.53347556 43.64856888 9.24672 12.65550222 28.928 32.34702222 59.05180444 59.04497778C668.3648 413.25454222 698.49088 446.96917333 713.89639111 474.70364444L713.89639111 474.70364444z"  horiz-adv-x="1024" />

    
    <glyph glyph-name="send" unicode="&#59163;" d="M899.928188 397.68457031L137.16735839 694.31825464c-1.68232106 0.66247559-3.42114258 0.99300734-5.13171386 0.99300733-3.03410961 0-5.98629346-0.99300734-8.49776807-2.8688445-3.9169402-2.97902123-6.01454369-7.72511498-5.57242235-12.57997339l24.93959251-269.0456023 2.42813525-27.25755104-2.67674048-25.60206811L117.9654541 89.18706369999995c-0.44070849-4.91277172 1.65548292-9.65745337 5.57242236-12.58138624 2.48322439-1.87583717 5.46224562-2.8688445 8.49776807-2.86884449 1.73740943 0 3.47623094 0.33053174 5.13171386 0.99300733l762.7608296 296.63509718c5.40715648 2.09619141 8.99356493 7.33808278 8.99356494 13.13227224C908.92175293 390.34507545 905.33534448 395.58696605 899.928188 397.68457031zM199.26914771 414.84395948l-0.11017751 1.18652344L180.56445312 616.82132372l592.67551979-230.50477808L199.26914771 414.84395948zM198.85527659 352.07969459000003l0.22035425 2.12444163 574.02591356 28.47091261L180.48252661 152.19852098 198.85527659 352.07969459000003z"  horiz-adv-x="1026" />

    
    <glyph glyph-name="arrow-left" unicode="&#58943;" d="M256.82 383.17999999999995c0.019-14.795 5.703-29.572 16.988-40.877l387.956-388.63c22.446-22.486 59.144-22.613 81.701-0.017 22.713 22.753 22.548 59.237-0.017 81.842l-347.131 347.736 347.13 347.735c22.446 22.486 22.573 59.246 0.017 81.842-22.713 22.753-59.134 22.586-81.701-0.017l-387.954-388.63c-11.227-11.246-16.87-26.063-16.885-40.893l-0.103-0.09z"  horiz-adv-x="1024" />

    
    <glyph glyph-name="date" unicode="&#59076;" d="M796.16000036 628.81185209l-48.54518507 0 0-24.27259307c0-33.49617813-27.18530347-60.6814816-60.6814816-60.6814816s-60.6814816 27.18530347-60.6814816 60.6814816l0 24.27259307L395.66222222 628.81185209l0-24.27259307c0-33.49617813-27.18530347-60.6814816-60.6814816-60.6814816s-60.6814816 27.18530347-60.6814816 60.6814816l0 24.27259307-48.54518506 0c-33.49617813 0-60.6814816-27.18530347-60.6814816-60.6814816l0-449.0429632c0-33.49617813 27.18530347-60.6814816 60.6814816-60.6814816l570.4059264 0c33.49617813 0 60.6814816 27.18530347 60.6814816 60.6814816L856.84148196 568.13037049C856.84148196 601.62654862 829.65617742 628.81185209 796.16000036 628.81185209zM808.29629582 119.08740728999999c0-6.6749632-5.46133333-12.13629653-12.13629653-12.13629654L225.75407396 106.95111075c-6.6749632 0-12.13629653 5.46133333-12.13629654 12.13629654L213.61777742 471.04000035c0 6.6749632 5.46133333 12.13629653 12.13629654 12.13629654l570.4059264 0c6.6749632 0 12.13629653-5.46133333 12.13629653-12.13629654L808.29629582 119.08740728999999zM371.38962916 313.26814862000003l-84.9540736 0c-13.41060693 0-24.27259307 10.86198507-24.27259307 24.27259307l0 84.9540736c0 13.41060693 10.86198507 24.27259307 24.27259307 24.27259306l84.9540736 0c13.41060693 0 24.27259307-10.86198507 24.27259306-24.27259306l0-84.9540736C395.66222222 324.13013369 384.80023716 313.26814862000003 371.38962916 313.26814862000003zM371.38962916 143.36000034999995l-84.9540736 0c-13.41060693 0-24.27259307 10.86198507-24.27259307 24.27259307l0 84.9540736c0 13.41060693 10.86198507 24.27259307 24.27259307 24.27259307l84.9540736 0c13.41060693 0 24.27259307-10.86198507 24.27259306-24.27259307l0-84.9540736C395.66222222 154.22198542 384.80023716 143.36000034999995 371.38962916 143.36000034999995zM553.43407396 313.26814862000003l-84.9540736 0c-13.41060693 0-24.27259307 10.86198507-24.27259307 24.27259307l0 84.9540736c0 13.41060693 10.86198507 24.27259307 24.27259307 24.27259306l84.9540736 0c13.41060693 0 24.27259307-10.86198507 24.27259306-24.27259306l0-84.9540736C577.70666702 324.13013369 566.84468196 313.26814862000003 553.43407396 313.26814862000003zM553.43407396 143.36000034999995l-84.9540736 0c-13.41060693 0-24.27259307 10.86198507-24.27259307 24.27259307l0 84.9540736c0 13.41060693 10.86198507 24.27259307 24.27259307 24.27259307l84.9540736 0c13.41060693 0 24.27259307-10.86198507 24.27259306-24.27259307l0-84.9540736C577.70666702 154.22198542 566.84468196 143.36000034999995 553.43407396 143.36000034999995zM735.47851876 313.26814862000003l-84.9540736 0c-13.41060693 0-24.27259307 10.86198507-24.27259307 24.27259307l0 84.9540736c0 13.41060693 10.86198507 24.27259307 24.27259307 24.27259306l84.9540736 0c13.41060693 0 24.27259307-10.86198507 24.27259306-24.27259306l0-84.9540736C759.75111076 324.13013369 748.88912569 313.26814862000003 735.47851876 313.26814862000003zM735.47851876 143.36000034999995l-84.9540736 0c-13.41060693 0-24.27259307 10.86198507-24.27259307 24.27259307l0 84.9540736c0 13.41060693 10.86198507 24.27259307 24.27259307 24.27259307l84.9540736 0c13.41060693 0 24.27259307-10.86198507 24.27259306-24.27259307l0-84.9540736C759.75111076 154.22198542 748.88912569 143.36000034999995 735.47851876 143.36000034999995zM371.38962916 689.49333369l0-84.9540736c0-20.14625173-16.2626368-36.40888853-36.40888854-36.40888854s-36.40888853 16.2626368-36.40888853 36.40888854l0 84.9540736c0 20.14625173 16.2626368 36.40888853 36.40888853 36.40888853S371.38962916 709.63958542 371.38962916 689.49333369zM723.34222222 689.49333369l0-84.9540736c0-20.14625173-16.2626368-36.40888853-36.40888853-36.40888854s-36.40888853 16.2626368-36.40888853 36.40888854l0 84.9540736c0 20.14625173 16.2626368 36.40888853 36.40888853 36.40888853S723.34222222 709.63958542 723.34222222 689.49333369z"  horiz-adv-x="1024" />

    
    <glyph glyph-name="close-fill" unicode="&#58935;" d="M625.425306 214.41053399999998l-115.472941 115.472941-115.471918-115.472941-54.117548 54.118572 115.471918 115.471918-115.471918 115.472941 54.117548 54.117548 115.471918-115.471918 115.472941 115.471918 54.117548-54.117548-115.472941-115.472941 115.472941-115.471918L625.425306 214.41053399999998zM780.543176 654.590811c-148.824537 148.824537-392.356063 148.824537-541.1806 0s-148.824537-392.355039 0-541.179576 392.356063-148.824537 541.1806 0C929.367713 262.23474899999997 929.367713 505.766274 780.543176 654.590811z"  horiz-adv-x="1024" />

    
    <glyph glyph-name="girl" unicode="&#58933;" d="M512 832.66446222c-158.60280889 0-288-129.39719111-288-288 0-145.60938667 109.00024889-266.752 249.6-285.60042667v-98.39957333h-134.4v-76.8h134.4v-134.4h76.8v134.4h134.4v76.8h-134.4v98.39957333c140.59975111 18.84728889 249.6 139.98990222 249.6 285.60042667 0 158.60280889-129.39719111 288-288 288zM512 755.86446222c117.09667555 0 211.2-94.10218667 211.2-211.2 0-117.09667555-94.10218667-211.2-211.2-211.2-117.09667555 0-211.2 94.10218667-211.2 211.2 0 117.09781333 94.10218667 211.2 211.2 211.2z"  horiz-adv-x="1024" />

    
    <glyph glyph-name="boy" unicode="&#58932;" d="M832 768l-256 0c-19.2 0-32-12.8-32-32s12.8-32 32-32l192 0-182.4-182.4C537.6 556.8 480 576 416 576c-160 0-288-128-288-288s128-288 288-288c160 0 288 128 288 288 0 64-19.2 121.6-54.4 169.6L832 643.2l0-192c0-19.2 12.8-32 32-32 19.2 0 32 12.8 32 32l0 256C896 742.4 867.2 768 832 768zM416 67.20000000000005c-124.8 0-224 99.2-224 224s99.2 224 224 224 224-99.2 224-224S540.8 67.20000000000005 416 67.20000000000005z"  horiz-adv-x="1024" />

    
    <glyph glyph-name="set" unicode="&#58974;" d="M781.60625 413.30625c-2.08125 15.525-5.2875 30.65625-9.9 45.28125l80.55 120.6-65.8125 82.6875-135.5625-51.8625c-13.05 7.65-26.83125 14.34375-41.0625 19.8L565.60625 768.75l-105.75 0L415.64375 629.75625C401.6375 624.4125 388.1375 617.8875 375.3125 610.40625L238.56875 662.6625 172.64375 580.0875 253.8125 458.7C249.36875 444.80625 246.275 430.29375 244.08125 415.55625l-126.5625-74.64375L141.03125 237.75l145.4625-12.09375c8.2125-12.43125 17.60625-23.9625 27.7875-34.81875L293.75 45.60000000000002l95.175-45.7875 99.95625 105.80625c7.81875-0.7875 15.75-1.18125 23.85-1.18125 7.2 0 14.2875 0.39375 21.31875 1.06875l100.35-106.25625 95.11875 45.9-20.30625 143.60625c10.575 11.19375 20.41875 23.0625 29.025 35.94375l144.675 12.0375 23.5125 103.10625L781.60625 413.30625zM512.73125 194.94375000000002c-100.06875 0-181.18125 81.16875-181.18125 181.29375 0 100.0125 81.1125 181.18125 181.18125 181.18125 100.0125 0 181.125-81.1125 181.125-181.18125C693.8 276.11249999999995 612.74375 194.94375000000002 512.73125 194.94375000000002"  horiz-adv-x="1024" />

    
    <glyph glyph-name="news" unicode="&#59144;" d="M644.14605518 414.62513584l260.97965596 216.49131914-1e-8-521.45835117L644.14605518 414.62513584zM121.86026474 658.62160635l781.30567442 0-390.64114512-321.84408955L121.86026474 658.62160635zM118.87338974 109.65900293000004L118.87338974 631.1164549800001 379.82966153 414.62513584 118.87338974 109.65900293000004zM512.40787315 305.27097862000005l114.59040732 94.85598779 248.94221748-290.74677363L149.08480684 109.3801919l248.94221748 287.88941073L512.40787315 305.27097862000005z"  horiz-adv-x="1024" />

    
    <glyph glyph-name="aboutus" unicode="&#58965;" d="M525.114692 793.252895c-229.821269 10.861372-423.249677-177.584558-422.435125-411.555333 1.042749-299.32218 315.278593-496.418117 585.234955-366.94123 12.599969 6.043646 25.337061 12.55392 36.337603 21.018709 19.457144 14.97097 23.509437 35.908838 11.616572 53.267181-12.465916 18.196431-29.881564 21.423939-49.390897 13.489222-10.04989-4.088108-19.052938-10.685363-28.967752-15.182794-126.787638-57.521065-248.039189-46.335305-355.218234 41.801035-108.74368 89.421612-144.92574 208.296023-109.187795 344.739579 43.652196 166.649508 217.050408 270.850731 384.180869 234.679927 176.101787-38.110993 290.045909-200.222137 259.848143-374.825804-7.028067-40.643676-25.908066-79.379908-40.653909-118.495788-10.066263-26.705222-6.712889-45.458331 13.204743-56.787354 19.540032-11.113105 38.753629-4.527107 55.148018 19.23611 3.52222 5.107321 6.251378 10.778484 9.18622 16.275685 24.530696 45.954635 39.492456 95.109148 44.947701 146.652058C944.04704 577.622836 766.000971 781.8675900000001 525.114692 793.252895zM564.213175 396.921287c9.115612 42.580794-12.606109 62.342884-55.298444 52.902884-9.091052-2.009773-18.232247-4.457522-26.803459-8.018627-28.460192-11.822257-37.786605-32.769334-20.583804-59.119469 12.263301-18.784832 9.471722-34.17638 4.28663-52.447513-10.187013-35.894512-20.615527-71.786976-28.817326-108.159372-7.235798-32.092929 10.072403-52.812833 42.718941-52.507888 4.3951 0.730641 10.57587 1.528819 16.657378 2.805906 51.978838 10.915607 60.285015 28.485775 38.650275 76.800153-3.864004 8.629541-3.364631 20.741393-1.065262 30.332842C543.375591 318.81130199999996 555.760666 357.43906400000003 564.213175 396.921287zM589.758991 553.050184c0.511653 24.560372-23.067368 47.913243-47.544853 47.087435-25.408693-0.858554-45.788859-24.127514-43.774993-49.985438 1.906419-24.486694 22.179139-42.670845 46.632063-41.827641C568.862056 509.145232 589.268828 529.5694 589.758991 553.050184z"  horiz-adv-x="1024" />

    
    <glyph glyph-name="trophy" unicode="&#58984;" d="M402.39131503 602.39352891c-15.15832295 0-27.44039531-12.28207237-27.4403953-27.44039532l0-27.43949619c0-15.15832295 12.28207237-27.44039531 27.44039531-27.44039531s27.43949619 12.28207237 27.43949619 27.44039531l0 27.43949619C429.83081035 590.1114565400001 417.54963711 602.39352891 402.39131503 602.39352891zM621.91088018 602.39352891c-15.15832295 0-27.44039531-12.28207237-27.44039531-27.44039532l0-27.43949619c0-15.15832295 12.28207237-27.44039531 27.44039531-27.44039531s27.44039531 12.28207237 27.44039531 27.44039531l0 27.43949619C649.35037636 590.1114565400001 637.06830401 602.39352891 621.91088018 602.39352891zM579.61705537 481.44173437c-12.76414629 8.16376465-29.72664492 4.46637217-37.90839815-8.30676796-0.10702705-0.16998487-11.75503008-17.08751426-29.8426667-17.08751427-17.56059433 0-28.48548691 15.89942021-29.22658417 17.01556348-8.0567376 12.67510605-24.82316982 16.52449658-37.63138624 8.58377988-12.87117334-8.00367363-16.82849004-24.92120303-8.83381024-37.79237636 9.85192031-15.85445097 36.87230039-42.68775762 75.69178065-42.68775762 38.61441914 0 65.97386982 26.62734638 76.05783282 42.36577559C596.09658271 456.28848867 592.38120166 473.26807588 579.61705537 481.44173437zM823.50739795 682.61373955c-1.00012148 0.0179877-1.95617373 0.0179877-2.94730137-0.00899385l-58.1671626 0L762.39293398 737.26158838c0 15.15832295-12.28207237 27.43949619-27.43949619 27.43949619L391.7749124 764.70108457c-15.15832295 0-27.43949619-12.28207237-27.43949618-27.43949619s12.28207237-27.43949619 27.43949618-27.43949619l315.73812921 0-1e-8-269.80806973c0-107.63362441-87.56283252-195.20545078-195.19735605-195.20545078s-195.19735606 87.57182636-195.19735606 195.20545079l1e-8 297.24846591c0 15.15832295-12.28207237 27.43949619-27.4394962 27.43949619s-27.43949619-12.28207237-27.43949619-27.43949619l0-54.65684268-58.5062332 0c-1.00911621 0.03597539-2.06320078 0.0179877-3.41228672 0-45.01897734 0-81.64124737-36.63126387-81.64124737-81.65923505 0-21.70498359 8.43178359-42.11574521 23.75109669-57.53309239l119.09365487-128.24944717c0.66554912-0.71771308 1.43992354-1.25644834 2.16123487-1.88602119 12.42327744-116.34511816 104.94264903-209.0641544 221.1906331-221.81391035l0-133.84994942L358.77088935 57.61399013000005c-15.15832295 0-27.43949619-12.28207237-27.43949618-27.43949619s12.28207237-27.44039531 27.43949618-27.44039531l307.09139239 0c15.15832295 0 27.43949619 12.28207237 27.43949618 27.44039531s-12.28207237 27.43949619-27.43949618 27.43949619L539.75608174 57.61399013000005 539.75608174 191.46393954999996c116.35321289 12.76234717 208.94183701 105.63517969 221.23020586 222.1295959 0.59269834 0.53693614 1.24475625 0.97313994 1.79968008 1.57033564L881.87962168 543.4133173800001c15.31841396 15.41734717 23.74210283 35.81821494 23.74210283 57.53309239C905.62172451 645.97348184 868.99945449 682.6047457 823.50739795 682.61373955zM182.29524013 581.1256491199999c-0.25902422 0.27701191-0.51804844 0.54503086-0.78606737 0.81304893-5.12742393 5.09144766-7.94970967 11.83507558-7.94970967 19.0077126 0 14.76528925 12.00506045 26.77934356 26.76135586 26.77934355l1.37516748 0.04496924c0.50006074-0.02698154 1.00911621-0.04496924 1.50917695-0.04496924l59.03327549 0 0-132.68973603L182.29524013 581.1256491199999zM842.80111719 581.9386971700001c-0.26801807-0.26801807-0.52704229-0.53603614-0.78606739-0.81304892l-79.62211582-85.74336563L762.39293398 627.7248542l58.70319961 0c0.50006074 0 0.89309443-0.0179877 1.38416133 0.0179877l1.5001831-0.0179877c14.75629541 0 26.76135586-12.0140543 26.76135586-26.77934355C850.741833 593.77377364 847.91954638 587.02115185 842.80111719 581.9386971700001z"  horiz-adv-x="1024" />

    
    <glyph glyph-name="notice" unicode="&#58967;" d="M563.872 782.24c-14.016 6.592-30.56 4.416-42.464-5.472L291.872 585.7280000000001 108.928 586.4639999999999 108.768 586.4639999999999c-10.528 0-20.672-4.16-28.128-11.616-7.52-7.456-11.776-17.6-11.776-28.224l-0.832-319.264c0-10.624 4.16-20.8 11.648-28.288 7.456-7.552 17.632-11.744 28.256-11.744l185.12 0 228.384-190.336c7.296-6.08 16.416-9.216 25.536-9.216 5.76 0 11.52 1.248 16.928 3.776 14.016 6.56 22.976 20.64 22.976 36.128L586.88 746.112C586.88 761.568 577.92 775.648 563.872 782.24L563.872 782.24zM718.624 582.688c-19.68 9.312-43.072 0.832-52.64-18.752-9.536-19.648-1.28-43.424 18.24-53.248 2.528-1.312 62.304-32.384 62.304-120.864 0-94.528-55.904-125.856-57.76-126.88-19.712-9.856-27.712-33.856-17.856-53.568 7.04-14.016 21.088-22.08 35.776-22.08 5.984 0 12.096 1.344 17.792 4.192 4.16 2.112 101.856 52.672 101.856 198.336C826.336 530.3679999999999 723.008 580.608 718.624 582.688L718.624 582.688zM842.88 699.904c-18.4 11.808-42.816 6.432-54.848-11.936-11.968-18.368-6.72-43.072 11.584-55.168 4.32-2.848 106.56-72.512 106.56-245.92 0-173.792-98.08-243.52-101.984-246.176-18.368-12.256-23.296-36.992-11.072-55.36 7.68-11.52 20.352-17.76 33.248-17.76 7.584 0 15.296 2.208 22.112 6.72 5.6 3.712 137.504 94.144 137.504 312.608C985.984 605.7919999999999 848.736 696.16 842.88 699.904L842.88 699.904zM842.88 699.904"  horiz-adv-x="1024" />

    
    <glyph glyph-name="edit" unicode="&#58891;" d="M815.9424 563.9808l-123.8208 123.9104 64.0448 64.0896c21.344 21.3568 55.5072 21.3568 72.5824 0l51.2384-51.2768c21.3504-21.3632 21.3504-55.5456 0-72.64L815.9424 563.9808 815.9424 563.9808zM457.2992 205.08159999999998L333.4784 328.99199999999996l337.2928 333.2544 123.8208-123.8976L457.2992 205.08159999999998 457.2992 205.08159999999998zM235.2832 102.54079999999999l76.8512 200.8128 123.8208-123.904L235.2832 102.54079999999999 235.2832 102.54079999999999zM866.0928 59.81439999999998c17.088 0 29.9008-12.8128 29.9008-29.9008 0-17.0944-12.8128-29.9136-29.9008-29.9136L157.9072 0c-18.72 0-29.9072 12.8192-29.9072 29.9136 0 17.088 12.8128 29.9008 29.9072 29.9008L866.0928 59.81439999999998 866.0928 59.81439999999998zM865.8112 59.81439999999998"  horiz-adv-x="1024" />

    
    <glyph glyph-name="sending" unicode="&#58908;" d="M505.05142827 19.568513120000034L606.2585677 157.8821484 505.05142827 187.03870091 505.05142827 19.568513120000034 505.05142827 19.568513120000034ZM147.56851312 345.05578577999995L435.10469789 257.95221251 789.22800385 558.6281446400001 514.7875763 234.75367562999998 822.2119411 139.78844750999997 980.55476864 748.43148688 147.56851312 345.05578577999995 147.56851312 345.05578577999995Z"  horiz-adv-x="1171" />

    
    <glyph glyph-name="article-fill" unicode="&#58960;" d="M753.734375 739.0921875L245.628125 739.0921875c-43.36875 0-78.1734375-34.93125-78.1734375-77.9625l0-547.59375c0-43.0734375 35.015625-77.9625 78.1734375-77.9625L753.734375 35.573437499999955c43.36875 0 78.1734375 34.93125 78.1734375 77.9625L831.9078125 661.0875C831.9078125 704.203125 796.934375 739.0921875 753.734375 739.0921875zM328.0625 637.125c32.4 0 58.640625-26.0296875 58.640625-58.640625 0-32.4-26.0296875-58.640625-58.640625-58.640625-32.4 0-58.640625 26.0296875-58.640625 58.640625C269.421875 610.884375 295.4515625 637.125 328.0625 637.125zM507.359375 195.29531250000002L269.421875 195.29531250000002l0 39.065625L507.359375 234.36093749999998 507.359375 195.29531250000002zM643.2875 297.26250000000005L269.421875 297.26250000000005 269.421875 336.328125l373.865625 0L643.2875 297.26250000000005zM643.2875 399.1875L269.421875 399.1875 269.421875 438.2953125l373.865625 0L643.2875 399.1875z"  horiz-adv-x="1024" />

    
    <glyph glyph-name="jubao1" unicode="&#58913;" d="M865.14107011 553.65557315c-6.74272881 14.03588408-23.55862763 19.98085342-37.62149238 13.19675273-14.00800253-6.74272881-19.92509122-23.58560918-13.1823624-37.60800205 80.14286338-166.71097002 9.74309414-367.56279229-156.98226621-447.71824688-166.61473506-80.14286338-367.52142041-9.77007568-447.69126533 156.95438467-80.14196338 166.71097002-9.74309414 367.56279229 156.98226621 447.71824687 113.69101729 54.62986113 246.81246152 41.35126377 347.56754942-34.56716308 12.41248447-9.41211826 30.08100498-6.88033477 39.4661417 5.53214883 9.35725605 12.4259748 6.88033477 30.09449619-5.55913125 39.46524258C630.46588028 785.3582792 474.94242529 800.85297364 342.20682002 737.00346328 147.49243613 643.37514404 65.25849043 408.78269708 158.85892989 214.06921318000002c67.37242148-140.13938584 207.75913945-222.02886445 353.76075-222.01537324 56.85944941 0.01349122 114.59940117 12.43946602 169.17440009 38.66748311C876.50756387 124.34874317000003 958.74150957 358.94208925 865.14107011 553.65557315zM511.98560967 252.77806815999998c23.33827705 0 42.27313886 18.92137148 42.27313887 42.27313887L554.25874854 582.52599902c0 23.35176739-18.93486182 42.27313886-42.27313887 42.27313887-23.33827705 0-42.27313886-18.92137148-42.27313887-42.27313887l0-287.47479199C469.71336992 271.69854052000005 488.64823261 252.77806815999998 511.98560967 252.77806815999998zM511.99550263 176.91360440000005m-51.54045556 0a50.36660156 50.36660156 0 1 1 103.08091113 0 50.36660156 50.36660156 0 1 1-103.08091113 0Z"  horiz-adv-x="1024" />

    
    <glyph glyph-name="video-fill" unicode="&#58903;" d="M118.25 384.00014062C118.25 601.45506269 294.54493731 777.75 511.99985938 777.75 729.45478145 777.75 905.74971875 601.45506269 905.74971875 384.00014062 905.74971875 166.54521854999996 729.45478145-9.749718750000056 511.99985938-9.749718750000056 294.54493731-9.749718750000056 118.25 166.54521854999996 118.25 384.00014062M426.60863984 561.76507676C401.30364922 575.70382237 380.74990625 563.6813261699999 380.74990625 534.80633701L380.74990625 233.22019452999996C380.74990625 204.55520507999995 401.27739893 192.29645888000005 426.60863984 206.26145391L702.78479141 358.69515C728.03728232 372.66014501999996 728.08978203 395.34013623 702.78479141 409.33138154L426.60863984 561.76507676Z"  horiz-adv-x="1024" />

    
    <glyph glyph-name="share" unicode="&#58888;" d="M485.18497339 773.61970523L210.17362293 773.61970523C164.62293699 773.61970523 127.7136281 736.79479194 127.7136281 691.36895918L127.7136281 87.29770747999999C127.7136281 42.11682234 164.53854139 5.04696143000001 209.96437415 5.04696143000001L814.03562585 5.04696143000001C859.21651099 5.04696143000001 896.2863719 41.97124284999995 896.2863719 87.51965201999997L896.2863719 334.59201035 841.38831902 334.59201035 841.38831902 87.51965201999997C841.38831902 72.36739153999997 828.97388565 59.94501431000003 814.03562585 59.94501431000003L209.96437415 59.94501431000003C194.9676056 59.94501431000003 182.61168098 72.32635616000005 182.61168098 87.29770747999999L182.61168098 691.36895918C182.61168098 706.44832475 194.91527558 718.72165235 210.17362293 718.72165235L485.18497339 718.72165235 485.18497339 773.61970523ZM819.56257469 634.14354024C811.50502233 632.99619046 801.95398438 630.7978826 790.90709993 627.19561527 755.49528073 615.64820885 714.33468579 592.30789635 667.67785886 554.1009758299999 656.89599759 545.27179229 646.77879035 536.17390768 637.30406422 526.83058952 597.97245794 488.04448375 571.11731628 446.72952066 554.37128605 405.61551396 548.59061641 391.42310496 544.4843707 378.34421846 541.77016827 366.74248167999997 540.22112466 360.12116214 539.4936985 355.70192106 539.30197631 353.85717604L484.69802369 359.53208763C486.18553314 373.84489325000004 491.62646033 397.10188845 503.52883843 426.32400727 522.99758672 474.12269374 553.93658741 521.7204221 598.75729309 565.91949662 609.43285714 576.4469974799999 620.8063204 586.67456872 632.89626117 596.57492931 691.5635929 644.61716145 742.27377489 671.60583847 784.09879207 683.22602477L661.61122767 719.72845439 673.88336537 771.2197516 881.50963083 709.34519889 891.12889337 706.47856941 838.57752576 485.96109947 787.84868476 501.07876431 819.56257469 634.14354024Z"  horiz-adv-x="1024" />

    
    <glyph glyph-name="cate" unicode="&#58895;" d="M714.5496875 484.6828125c-15.4096875-0.271875-30.7809375-0.710625-45.84 3.9703125-41.5771875 12.924375-69.103125 52.591875-66.4659375 96.3140625 2.5790625 42.770625 34.6284375 78.90375 76.8965625 86.7271875 5.90625 1.093125 11.84625 1.8290625 17.855625 1.6425 17.784375-0.5521875 35.6578125 1.520625 53.353125-1.715625 39.8765625-7.2965625 71.315625-41.004375 75.8315625-81.275625 5.716875-50.9934375-27.7753125-95.70375-78.4425-104.671875-2.6503125-0.46875-5.3428125-0.9065625-8.023125-0.945-8.3859375-0.1209375-16.775625-0.0440625-25.1634375-0.0440625zM714.53 443.0925c15.4134375 0.088125 30.7875 0.5325 45.8428125-4.160625 41.615625-12.973125 69.0346875-52.505625 66.4565625-96.3215625-2.5115625-42.7021875-34.603125-78.8728125-76.9059375-86.7159375-5.6090625-1.0396875-11.2509375-1.8028125-16.955625-1.6303125-18.0853125 0.5428125-36.260625-1.569375-54.25125 1.711875-39.8625 7.2721875-71.3315625 41.0315625-75.82125 81.2775-5.690625 51.031875 27.781875 95.73 78.4509375 104.6615625 10.99125 1.93875 22.1165625 0.99375 33.18375 1.1775zM714.515 24.192187500000045c-15.410625-0.27375-30.781875-0.7040625-45.8390625 3.9825-41.5715625 12.9384375-69.1021875 52.64625-66.4303125 96.339375 2.6175 42.7996875 34.6275 78.8625 76.929375 86.6971875 5.7571875 1.066875 11.5471875 1.816875 17.405625 1.635 17.9353125-0.555 35.9596875 1.5421875 53.8021875-1.7221875 39.8671875-7.291875 71.251875-40.9753125 75.79875-81.30375 5.7440625-50.930625-27.841875-95.7309375-78.4790625-104.64375-2.65125-0.466875-5.34375-0.9028125-8.0240625-0.94125-8.386875-0.12-16.775625-0.0440625-25.1634375-0.0440625zM603.5825 718.6949999999999c0.1378125-9.0178125-5.488125-17.825625-14.240625-20.95125-17.1590625-6.1275-34.38-12.1096875-51.7303125-17.668125-11.6634375-3.7359375-23.775 2.985-27.583125 14.5321875-3.74625 11.356875 1.8290625 23.7646875 13.2253125 27.8615625 17.143125 6.163125 34.37625 12.11625 51.763125 17.5434375 14.2059375 4.4334375 28.336875-6.4565625 28.565625-21.316875zM478.8940625 361.1334375c0 65.49375-0.0225 130.9865625 0.0215625 196.4803125 0.0075 11.2865625-1.20375 22.40625-3.6928125 33.4059375-16.595625 73.33125-91.7840625 120.8690625-165.1434375 104.3953125-65.1459375-14.62875-109.966875-70.52625-109.98375-137.3175-0.03375-131.2865625 0-262.573125-0.0328125-393.8596875-0.001875-8.26875 0.6309375-16.475625 2.0175-24.601875 15.1171875-88.63875 110.0409375-140.581875 192.500625-103.9725 54.3215625 24.1153125 82.981875 67.6940625 84.043125 127.19625 1.1775 66.0721875 0.2690625 132.1809375 0.27 198.2746875zM376.38125 306.583125c0.0375 13.1671875 9.7171875 23.13375 22.348125 23.1871875 12.66375 0.054375 22.475625-9.8503125 22.5853125-22.944375 0.08625-10.1803125 0.0178125-20.364375 0.0178125-30.5465625 0-10.18125 0.0665625-20.3653125-0.016875-30.5465625-0.106875-13.0959375-9.9084375-23.0090625-22.5665625-22.963125-12.63 0.045-22.3284375 10.0125-22.3678125 23.1684375-0.061875 20.2153125-0.06 40.42875 0 60.643125zM420.7934375 137.98593749999998c-2.59875-11.3128125-12.7509375-18.7546875-24.136875-17.67375-11.266875 1.06875-20.0296875 10.513125-20.26125 22.0190625-0.129375 6.4303125-0.136875 12.8671875 0.0046875 19.2975 0.271875 12.3675 10.295625 22.0003125 22.629375 21.90375 12.15375-0.09375 21.945-9.6515625 22.2834375-21.81 0.0909375-3.2878125 0.0140625-6.5821875 0.0140625-10.7240625-0.27-3.7659375 0.5203125-8.4215625-0.534375-13.0115625z"  horiz-adv-x="1024" />

    
    <glyph glyph-name="catergory" unicode="&#58905;" d="M309.22499847 773.0610266799999c50.09382435 0 95.31324963-20.24750385 128.08420955-53.09345455 0.37495378-0.37495378 0.74990756-0.74990756 1.04987056-1.19985208C470.45512173 686.14674163 490.25268106 641.30227014 490.25268106 591.8833625899999l0-161.08014174c0-11.02364099-8.92389986-19.94754083-19.94754084-19.94754084l-161.08014174 0c-50.01883359 0-95.23825886 20.24750385-128.0092188 53.01846379l-0.07499075 0.07499076-0.07499075-0.07499076C148.29483824 496.72009449 128.04733439 542.0145105199999 128.04733439 591.95835334S148.29483824 687.27160296 181.14078893 720.04256289C213.91174885 752.81352284 259.20616489 773.0610266799999 309.22499847 773.0610266799999L309.22499847 773.0610266799999 309.22499847 773.0610266799999M403.18841448 685.92176936c-24.07203236 24.07203236-57.29293682 38.84521109-93.96341601 38.84521109s-69.96637442-14.8481695-93.96341601-38.84521109-38.84521109-57.21794607-38.84521109-93.88842526 14.8481695-69.89138367 38.8452111-93.88842525l0-0.07499077c24.07203236-23.92205084 57.29293682-38.77022034 93.963416-38.77022033l132.88361786 0 0 132.73363634c0 36.22053467-14.47321573 69.06648535-37.94532204 92.98853622L403.18841448 685.92176936 403.18841448 685.92176936M664.9811402 320.04187571c-10.34872419 0-22.72219876 8.8489091-23.54709707 23.54709707-0.74990756 12.29848383 11.323604 24.07203236 24.29700462 24.07203235l49.11894454-1e-8c50.09382435 0 95.38824037-20.24750385 128.08420953-53.09345452 0.37495378-0.37495378 0.74990756-0.74990756 1.04987057-1.19985207 32.09604313-32.62097842 51.89360245-77.46544992 51.89360245-126.88435748 0-50.01883359-20.24750385-95.16326809-53.09345452-127.93422804l-0.07499076-0.07499075c-32.77095994-32.77095994-77.99038521-53.01846379-128.0092188-53.01846377s-95.23825886 20.24750385-128.00921878 53.01846377l-0.07499076 0.07499076-0.07499075-0.07499076c-32.77095994 32.77095994-53.09345452 77.99038521-53.09345453 128.00921879l0 159.35535439c0 10.94865023 11.02364099 21.89730046 24.8219399 21.89730045 14.24824346 0 23.54709707-12.82341911 23.54709706-23.1721433l1e-8-157.25561324c0-36.67047919 14.8481695-69.89138367 38.84521108-93.88842526l0-0.07499074c24.14702311-23.92205084 57.36792758-38.77022034 94.03840677-38.77022034s69.96637442 14.8481695 93.96341603 38.77022034c23.92205084 24.07203236 38.84521109 57.29293682 38.8452111 93.96341599 0 36.22053467-14.47321573 69.06648535-37.94532204 92.98853621l-0.89988906 0.89988908c-24.07203236 24.07203236-57.29293682 38.84521109-93.96341603 38.84521108M309.22499847 53.89968620000002c36.67047919 0 69.96637442 14.8481695 93.96341601 38.77022034 23.92205084 24.07203236 38.84521109 57.29293682 38.8452111 93.96341603l0 132.73363634L309.22499847 319.36695891c-36.67047919 0-69.96637442-14.8481695-93.96341601-38.8452111C191.1895501 256.59969698 176.3413806 223.37879251000004 176.3413806 186.70831332s14.8481695-69.89138367 38.8452111-93.88842528l0.89988906-0.89988904C240.15851311 68.37290192 272.92947305 53.89968620000002 309.22499847 53.89968620000002L309.22499847 53.89968620000002 309.22499847 53.89968620000002M437.23421727 58.62410377000003c-32.77095994-32.77095994-77.99038521-53.01846379-128.00921879-53.01846379-49.3439168 0-94.18838829 19.79755933-126.95934824 51.89360245-0.37495378 0.37495378-0.74990756 0.74990756-1.19985206 1.04987058C148.29483824 91.39506370000004 128.04733439 136.61448897000002 128.04733439 186.70831332c0 50.01883359 20.24750385 95.31324963 53.09345454 128.00921879 32.77095994 32.77095994 78.06537596 53.09345452 128.08420955 53.09345454l161.1551325 0c11.02364099 0 19.94754083-8.99889059 19.94754081-19.94754085l0-161.08014173c0-50.01883359-20.24750385-95.16326809-53.09345453-127.93422804L437.23421727 58.62410377000003 437.23421727 58.62410377000003M714.77500153 724.76698046c-36.67047919 0-69.96637442-14.8481695-93.96341601-38.84521111-24.07203236-24.07203236-38.84521109-57.21794607-38.8452111-93.88842525l0-132.73363636 132.88361786 1e-8c36.67047919 0 69.96637442 14.8481695 93.96341602 38.77022033 23.92205084 24.07203236 38.84521109 57.29293682 38.8452111 93.96341602s-14.8481695 69.89138367-38.8452111 93.88842526l-0.07499077 0C784.66638519 709.91881097 751.52047146 724.76698046 714.77500153 724.76698046L714.77500153 724.76698046 714.77500153 724.76698046M586.61580123 720.04256289C619.46175193 752.81352284 664.83115869 773.0610266799999 714.77500153 773.0610266799999c50.09382435 0 95.38824037-20.24750385 128.08420954-53.09345455l-0.07499076-0.07499075 0.07499076-0.07499076C875.70516176 687.0466307 895.95266561 641.90219618 895.95266561 591.8833625899999s-20.24750385-95.16326809-53.09345454-127.93422804l-0.07499076-0.07499075c-32.77095994-32.77095994-77.99038521-53.01846379-128.00921878-53.01846379l-161.23012325 0c-10.94865023 0-19.94754083 8.92389986-19.94754084 19.94754085l0 161.08014173C533.67232821 641.97718693 553.84484129 687.27160296 586.61580123 720.04256289L586.61580123 720.04256289 586.61580123 720.04256289"  horiz-adv-x="1024" />

    
    <glyph glyph-name="gengduo" unicode="&#59035;" d="M441.37930999 648.827586a70.62069 70.62069 0 1 1 141.24138002 0 70.62069 70.62069 0 0 1-141.24138002 0z m1e-8-264.827586a70.62069 70.62069 0 1 1 141.24138 0 70.62069 70.62069 0 0 1-141.24138 0z m-1e-8-264.827586a70.62069 70.62069 0 1 1 141.24138002 0 70.62069 70.62069 0 0 1-141.24138002 0z"  horiz-adv-x="1024" />

    
    <glyph glyph-name="love" unicode="&#58890;" d="M837.30443386 654.93757274l-0.58496548 0.58902099c-75.45580188 75.45131073-198.92199134 75.45131073-274.37180502 0L512.22680304 605.40767959l-50.11913196 50.11868285c-75.45580188 75.45131073-198.92199134 75.45131073-274.3770447 0l-0.58451486-0.58902099c-75.45131073-75.45131073-75.45131073-198.92124281 0-274.37180503L237.26590894 330.44528841l-0.63003192-0.62913068 274.96239116-274.96164267 0.62958131 0.62913072 0.63003191-0.62913071 274.96089412 274.96164265-0.63453878 0.62913069 50.12047931 50.12047931c75.45430482 75.4505622 75.45430482 198.92049429 0 274.37255353ZM278.17204662 373.28935708999995c-14.93060178 0-27.03821673 12.10222556-27.03821672 27.03372558 0 14.9368894 12.10761495 27.03821673 27.03821672 27.03821673 14.9368894 0 27.03956407-12.10177646 27.03956408-27.03821673 0-14.93194913-12.10267467-27.03372558-27.03956408-27.03372558Zm37.67752521 240.27649546c-26.60601845-12.30500096-44.30683605-25.96602965-56.56677581-52.72347468-12.10581848-26.40818332-9.52527886-53.15163094-2.08433501-81.4005867 2.83469376-10.74477565-2.95817791-21.69150331-13.06842149-25.36803308a20.31788524 20.31788524 0 0 0-1.89009276-0.59352861c-11.26529986-2.9306846-22.82806353 3.92440382-25.83810674 15.32806851-9.96690855 37.86098867-11.66867994 74.8286877 4.54993111 110.21879564 16.43670875 35.86003188 41.4099698 56.84215814 77.04866287 73.33380862 10.51767319 4.85954347 23.12103618 0.16133856 28.04992299-10.55098255 4.92488221-10.7119154 0.3600824-23.35757006-10.20082259-28.24371608Zm0 1e-8"  horiz-adv-x="1024" />

    
    <glyph glyph-name="movie-fill" unicode="&#58934;" d="M809.2154195 626.49004068c55.19714934-66.047871 86.80577331-150.96656229 86.80577331-243.43358169 0-210.88141669-171.7244646-383.0776518-383.0776518-383.0776518-212.76849872 0-384.49296332 171.7244646-384.49296332 383.0776518 0 212.76849872 171.7244646 384.49296332 384.49296332 384.49296332 94.35410143 0 179.74456322-33.96747651 246.26420473-89.63639636 49.06413274-7.07655761 72.18088759 7.07655761 86.80577333 68.87849404l50.00767374-16.98373825c-18.39904978-60.85839542-47.64882122-93.88233092-86.80577331-103.31774106z m-514.70162329-153.32541483c-48.12059173 0-88.22108484-40.10049311-88.22108484-89.63639636 0-48.12059173 40.10049311-89.63639636 88.22108484-89.63639635 50.00767376 0 89.63639636 41.51580463 89.63639635 89.63639635 0 49.53590325-40.10049311 89.63639636-89.63639635 89.63639636z m218.4297448 217.01443329c-50.00767376 0-89.63639636-40.10049311-89.63639635-88.22108484 0-50.00767376 40.10049311-89.63639636 89.63639635-89.63639635 48.12059173 0 89.63639636 40.10049311 89.63639636 89.63639635 0.47177051 48.59236224-41.04403412 88.22108484-89.63639636 88.22108484z m-51.42298527-306.65082965c0-28.30623043 23.11675485-50.47944426 51.42298527-50.47944426s50.47944426 22.17321384 50.47944428 50.47944426-22.17321384 51.42298529-50.47944428 51.42298528c-28.30623043 0-51.42298529-23.11675485-51.42298527-51.42298528z m51.42298527-127.37803693c-50.00767376 0-89.63639636-40.57226361-89.63639635-89.63639635 0-50.00767376 40.10049311-89.63639636 89.63639635-89.63639636 48.12059173 0 89.63639636 40.10049311 89.63639636 89.63639636 0.47177051 48.59236224-41.04403412 89.63639636-89.63639636 89.63639635z m127.37803694 127.37803693c0-48.12059173 40.57226361-89.63639636 89.63639635-89.63639635 50.00767376 0 89.63639636 41.51580463 89.63639636 89.63639635 0 50.00767376-40.10049311 89.63639636-89.63639636 89.63639636-48.59236224 0-89.63639636-40.10049311-89.63639635-89.63639636z"  horiz-adv-x="1024" />

    
    <glyph glyph-name="up" unicode="&#59151;" d="M260.45 260.43399999999997l251.524 251.524 251.523-251.524h-503.046zM260.45 260.43399999999997z"  horiz-adv-x="1024" />

    
    <glyph glyph-name="category-fill" unicode="&#59137;" d="M729.37833154 352.94082039h-181.4000636V171.54511725999998c0-90.17023425 73.09897998-163.26049329 163.26049329-163.26049328h18.13957031c90.16587377 0 163.25613281 73.0946195 163.25613282 163.26049328v18.13957031c0 90.16151331-73.0946195 163.25613281-163.25613282 163.25613282z m-435.36276892 0c-90.16151331 0-163.25613281-73.09897998-163.25613281-163.25613281v-18.13957032c0-90.17023425 73.0946195-163.26049329 163.25613281-163.26049328h18.13957032c90.16587377 0 163.25613281 73.0946195 163.25613281 163.26049329v18.13957031 163.25613282H294.01556262z m18.14393079 417.21883814h-18.13957031c-90.16587377 0-163.26049329-73.0946195-163.26049329-163.26049329v-18.13957032c0-90.16151331 73.0946195-163.25613281 163.26049329-163.25613281H475.41562622V606.89916524c0 90.16587377-73.0946195 163.26049329-163.25613281 163.26049329z m417.21883813 0h-18.13957031c-90.16587377 0-163.26049329-73.0946195-163.26049329-163.26049329V425.50346211h181.4000636c90.16587377 0 163.25613281 73.0946195 163.25613282 163.25613281v18.13957032c0 90.16587377-73.0946195 163.26049329-163.25613282 163.26049329z"  horiz-adv-x="1024" />

    
    <glyph glyph-name="actor" unicode="&#58964;" d="M866.15 112.59375l59.0625-59.0625a28.6875 28.6875 0 0 0 0.28125-40.05 28.125 28.125 0 0 0-40.10625 0.28125l-57.99375 58.05a140.625 140.625 0 1 0 38.8125 40.78125zM574.49375 232.125a649.29375 649.29375 0 0 1-3.9375 0.39375 27.3375 27.3375 0 0 0-24.3 28.06875l1.18125 55.125a27.73125 27.73125 0 0 0 13.05 23.00625c64.125 39.4875 93.9375 115.0875 93.9375 237.9375 0 125.55-86.23125 151.875-158.5125 151.875h-7.14375c-72.28125 0-158.45625-26.325-158.45625-151.875 0-120.7125 31.10625-198.5625 95.0625-237.9375a27.61875 27.61875 0 0 0 13.05-23.625v-55.125a27.3375 27.3375 0 0 0-24.3-27.45c-131.23125-13.3875-218.30625-62.60625-218.30625-89.26875 0-85.78125 161.26875-103.78125 296.55-103.78125 35.1 0 71.94375 1.2375 107.2125 4.5v-49.1625c-32.45625-3.0375-68.175-4.55625-107.2125-4.55625-229.6125 0-345.99375 52.65-345.99375 156.54375 0 74.19375 119.98125 122.7375 239.5125 139.1625v15.4125C314.1125 352.55625 279.125 441.9375 279.125 573.7875 279.125 701.475 357.5375 777.75 488.825 777.75h7.0875c131.2875 0 209.64375-76.275 209.64375-203.9625 0-49.6125 0-196.70625-105.8625-272.5875l-0.3375-15.3h0.225v-53.775h-25.0875z m172.40625-129.375a84.375 84.375 0 1 1 0 168.75 84.375 84.375 0 0 1 0-168.75z"  horiz-adv-x="1024" />

    
    <glyph glyph-name="jifen" unicode="&#58921;" d="M496 155.2v52c-35.2 4-72.8 19.2-99.2 40.8l-3.2 2.4 25.6 32.8 3.2-2.4c29.6-23.2 59.2-34.4 89.6-34.4 42.4 0 65.6 18.4 65.6 52.8 0 40.8-37.6 57.6-76.8 75.2-44.8 20-90.4 40.8-90.4 96.8C410.4 516.8 444.8 552 496 560v52.8h40.8v-52c40-4.8 64.8-23.2 81.6-40l3.2-3.2-28.8-28.8-2.4 2.4c-21.6 19.2-39.2 28.8-71.2 28.8-34.4 0-57.6-19.2-57.6-48.8 0-33.6 32.8-48 70.4-64 45.6-20 97.6-41.6 97.6-107.2 0-50.4-35.2-85.6-92-93.6v-52.8H496zM512-32.8c-229.6 0-416.8 187.2-416.8 416.8 0 229.6 187.2 416.8 416.8 416.8 229.6 0 416.8-187.2 416.8-416.8 0-229.6-187.2-416.8-416.8-416.8z m0 791.2c-206.4 0-374.4-168-374.4-374.4 0-206.4 168-374.4 374.4-374.4 206.4 0 374.4 168 374.4 374.4 0 206.4-168 374.4-374.4 374.4zM512 42.4c-12 0-21.6 9.6-21.6 21.6s9.6 21.6 21.6 21.6c164 0 297.6 133.6 297.6 297.6 0 45.6-10.4 89.6-30.4 130.4-2.4 5.6-3.2 11.2-0.8 16.8 1.6 5.6 5.6 9.6 11.2 12.8 3.2 1.6 6.4 2.4 9.6 2.4 8.8 0 16-4.8 19.2-12 23.2-47.2 34.4-96.8 34.4-149.6 0.8-188-152.8-341.6-340.8-341.6zM735.2 591.2c-5.6 0-11.2 2.4-15.2 6.4-56 54.4-129.6 84.8-208 84.8-12 0-21.6 9.6-21.6 21.6s9.6 21.6 21.6 21.6c89.6 0 174.4-34.4 238.4-96.8 4-4 6.4-9.6 6.4-15.2s-2.4-11.2-6.4-15.2c-4-4.8-9.6-7.2-15.2-7.2zM388 68c-3.2 0-5.6 0.8-8.8 1.6C252.8 123.2 170.4 246.4 170.4 384c0 132.8 78.4 255.2 199.2 310.4 3.2 1.6 5.6 1.6 8.8 1.6 8.8 0 16-4.8 20-12.8 4.8-11.2 0-24-10.4-28.8-105.6-48-173.6-154.4-173.6-270.4 0-120 71.2-228 182.4-274.4 5.6-2.4 9.6-6.4 12-12 2.4-5.6 2.4-11.2 0-16.8-4.8-8-12-12.8-20.8-12.8z"  horiz-adv-x="1024" />

    
    <glyph glyph-name="see-fill" unicode="&#58937;" d="M903.2890625 420.38671875c-55.28320313 68.81835938-217.17773438 207.86132813-398.40820313 207.86132813-183.33984375 0-336.26953125-142.55859375-385.57617187-210.23437501-13.88671875-18.984375-14.32617188-44.56054688-1.31835938-64.07226562 46.7578125-69.69726563 194.4140625-216.73828125 386.89453126-216.73828125 190.1953125 0 347.08007813 143.34960938 399.72656249 214.18945313 15.29296875 20.65429688 14.765625 48.95507813-1.31835937 68.99414062zM508.1328125 199.86914062000005c-100.37109375 0-181.66992188 81.82617188-181.66992188 182.81250001s81.29882813 182.8125 181.66992188 182.81249999c100.37109375 0 181.66992188-81.82617188 181.66992188-182.81249999 0-100.8984375-81.38671875-182.8125-181.66992188-182.81250001z m0 303.04687501c-65.91796875 0-119.35546875-53.7890625-119.35546875-120.14648438s53.4375-120.14648438 119.35546875-120.14648438c65.91796875 0 119.35546875 53.7890625 119.35546875 120.14648438s-53.4375 120.14648438-119.35546875 120.14648438z"  horiz-adv-x="1024" />

    
    <glyph glyph-name="arrow-right" unicode="&#59654;" d="M767.18 384.82c-0.019 14.795-5.703 29.572-16.988 40.877l-387.956 388.63c-22.446 22.486-59.144 22.613-81.701 0.017-22.713-22.753-22.548-59.237 0.017-81.842l347.131-347.736-347.13-347.735c-22.446-22.486-22.573-59.246-0.017-81.842 22.713-22.753 59.134-22.586 81.701 0.017l387.954 388.63c11.227 11.246 16.87 26.063 16.885 40.893l0.103 0.09z"  horiz-adv-x="1024" />

    
    <glyph glyph-name="search" unicode="&#58899;" d="M950.979-1.9519999999999982l-159.63 159.63c59.478 70.592 95.62 162.546 95.62 262.942 0 0.105 0 0.209 0 0.314 0 227.111-185.055 411.866-412.482 411.866s-412.482-184.755-412.482-411.883 185.055-411.883 412.482-411.883c100.271 0 192.255 35.998 263.839 95.62l159.631-159.63c6.772-6.811 16.15-11.026 26.512-11.026s19.738 4.215 26.51 11.024c6.794 6.784 10.996 16.157 10.996 26.513 0 10.357-4.202 19.73-10.994 26.511zM474.487 84.03200000000004c-186.068 0-337.486 151.118-337.486 336.886s151.418 336.886 337.486 336.886c186.105 0 337.486-151.118 337.486-336.886s-151.381-336.886-337.486-336.886z"  horiz-adv-x="1024" />

    
    <glyph glyph-name="star" unicode="&#58897;" d="M560.53082407 55.067344479999974l224.93219015-82.47513642-9.81522287 264.46572662a68.16126974 68.16126974 0 0 0 14.51835048 44.5774704l163.38256356 208.16451782-230.45325299 65.43481895a136.32253952 136.32253952 0 0 0-75.93165449 55.21062849l-133.5960887 198.89458509-133.45976615-198.89458509a136.32253952 136.32253952 0 0 0-75.93165451-55.21062849l-230.38509173-65.43481895 147.90995535-188.53407211a136.32253952 136.32253952 0 0 0 28.96853963-89.22310209l-8.86096505-239.38237936 224.93219014 82.4751364a136.32253952 136.32253952 0 0 0 93.78990718 0zM265.25620351-91.34306293999998a68.16126974 68.16126974 0 0 0-91.54058525 66.52539928l8.86096507 239.4505406a68.16126974 68.16126974 0 0 1-14.45018917 44.5774704L20.14827753 447.67625818a68.16126974 68.16126974 0 0 0 34.96673139 107.69480622l230.38509171 65.43481894a68.16126974 68.16126974 0 0 1 38.03398854 27.60531425L457.06201658 847.37394396a68.16126974 68.16126974 0 0 0 113.14770778 0l133.59608869-198.96274638a68.16126974 68.16126974 0 0 1 37.897666-27.53715296l230.45325302-65.5711415a68.16126974 68.16126974 0 0 0 34.96673137-107.62664494l-163.31440231-208.09635653 9.81522284-264.46572657a68.16126974 68.16126974 0 0 0-91.60874654-66.45723801l-224.93219017 82.47513637a68.16126974 68.16126974 0 0 1-46.89495359 0l-224.93219016-82.47513637z"  horiz-adv-x="1024" />

    
    <glyph glyph-name="zixun" unicode="&#58947;" d="M905.66210938 666.65625c-0.08789063 38.84765625-4.13085938 68.73046875-23.55468751 88.15429688-19.3359375 19.42382813-49.13085938 23.5546875-87.89062499 23.64257812-139.39453125 0.52734375-282.3046875 0.52734375-437.08007813 0-40.69335938-0.17578125-68.203125-8.96484375-86.57226563-27.7734375-13.27148438-13.53515625-21.09375-31.72851563-23.99414062-55.98632813h-0.08789062c-51.76757813 2.02148438-85.25390625 1.23046875-105.8203125-18.89648437-22.32421875-21.70898438-22.8515625-59.4140625-21.796875-119.26757813 1.58203125-94.83398438 1.23046875-191.33789063 0.96679687-284.76562499-0.17578125-55.8984375-0.3515625-113.64257813-0.17578125-170.50781251 0.17578125-38.84765625 4.21875-68.73046875 23.5546875-88.15429687 19.42382813-19.51171875 49.13085938-23.5546875 87.890625-23.64257813 94.04296875-0.26367188 187.47070313-0.43945313 279.84375-0.43945312 93.07617188 0 184.921875 0.17578125 274.921875 0.43945313 33.13476563 0.08789063 70.22460938 3.33984375 93.33984375 26.63085937 18.45703125 18.45703125 26.3671875 46.49414063 26.45507813 93.60351563 0.52734375 180 0.52734375 367.3828125-1e-8 556.96289062zM867.078125 109.95703125c-0.08789063-35.5078125-4.83398438-56.07421875-15.29296875-66.53320313-10.45898438-10.45898438-30.84960938-15.20507813-66.18164063-15.29296874-179.20898438-0.52734375-365.71289063-0.52734375-554.4140625 0-34.1015625 0.08789063-52.20703125 3.77929688-60.73242187 12.3046875-8.52539063 8.52539063-12.21679688 26.80664063-12.3046875 61.08398437-0.17578125 56.68945313 0 114.43359375 0.17578125 170.24414063 0.3515625 93.515625 0.61523438 190.28320313-0.96679688 285.46874999-0.79101563 46.7578125-0.52734375 80.59570313 10.1953125 90.96679688 6.94335938 6.6796875 23.64257813 8.70117188 47.28515625 8.70117188 9.22851563 0 19.51171875-0.26367188 30.67382813-0.70312501l0.08789062-0.08789062c2.28515625-117.24609375 4.21875-236.25 6.06445313-351.38671875l2.37304687-144.58007813c0.17578125-10.546875 8.7890625-18.984375 19.24804688-18.98437499h0.3515625c10.63476563 0.17578125 19.16015625 8.96484375 18.984375 19.59960937-0.79101563 48.1640625-1.58203125 96.328125-2.37304688 144.58007813-1.93359375 118.4765625-3.8671875 241.08398438-6.24023437 361.58203124-0.52734375 28.21289063 3.95507813 46.23046875 14.32617187 56.86523438 10.546875 10.72265625 29.8828125 15.99609375 59.15039063 16.171875 154.6875 0.52734375 297.50976563 0.52734375 436.81640625 0 34.1015625-0.17578125 52.29492188-3.8671875 60.73242187-12.3046875 8.52539063-8.52539063 12.21679688-26.80664063 12.3046875-61.08398437 0.26367188-189.58007813 0.26367188-376.78710938-0.26367187-556.61132813zM768.37695313 390.59179688H382.36132812c-10.8984375 0-19.59960938-8.96484375-19.24804687-19.95117188 0.3515625-10.45898438 9.31640625-18.6328125 19.77539063-18.6328125h386.01562499c10.8984375 0 19.59960938 8.96484375 19.24804688 19.95117188-0.3515625 10.546875-9.31640625 18.6328125-19.77539062 18.63281249zM768.37695313 289.4296875H382.36132812c-10.8984375 0-19.59960938-8.96484375-19.24804687-19.95117188 0.3515625-10.45898438 9.31640625-18.6328125 19.77539063-18.63281249h386.01562499c10.8984375 0 19.59960938 8.96484375 19.24804688 19.95117187-0.3515625 10.45898438-9.31640625 18.6328125-19.77539062 18.6328125zM768.37695313 188.1796875H382.36132812c-10.8984375 0-19.59960938-8.96484375-19.24804687-19.95117188 0.3515625-10.45898438 9.31640625-18.6328125 19.77539063-18.63281249h386.01562499c10.8984375 0 19.59960938 8.96484375 19.24804688 19.95117187-0.3515625 10.45898438-9.31640625 18.6328125-19.77539062 18.6328125zM768.37695313 660.50390625H651.30664063c-10.8984375 0-19.59960938-8.96484375-19.24804688-19.95117188 0.3515625-10.45898438 9.31640625-18.6328125 19.77539062-18.63281249h117.15820313c10.8984375 0 19.59960938 8.96484375 19.24804688 19.95117187-0.43945313 10.546875-9.40429688 18.6328125-19.86328126 18.6328125zM768.37695313 576.21679688H651.30664063c-10.8984375 0-19.59960938-8.96484375-19.24804688-19.95117188 0.3515625-10.45898438 9.31640625-18.6328125 19.77539062-18.6328125h117.15820313c10.8984375 0 19.59960938 8.96484375 19.24804688 19.95117187-0.43945313 10.45898438-9.40429688 18.6328125-19.86328126 18.6328125zM768.37695313 491.84179688H651.30664063c-10.8984375 0-19.59960938-8.96484375-19.24804688-19.95117188 0.3515625-10.45898438 9.31640625-18.6328125 19.77539062-18.6328125h117.15820313c10.8984375 0 19.59960938 8.96484375 19.24804688 19.95117187-0.43945313 10.45898438-9.40429688 18.6328125-19.86328126 18.6328125zM544.51953125 449.390625c22.93945313 0 41.57226563 18.6328125 41.57226563 41.57226563V630.09375c0 22.93945313-18.6328125 41.57226563-41.57226563 41.57226563H374.5390625c-22.93945313 0-41.57226563-18.6328125-41.57226563-41.57226563v-139.13085938c0-22.93945313 18.6328125-41.57226563 41.57226563-41.57226562H544.51953125z m-172.96875 41.57226563V630.09375c0 1.66992188 1.31835938 2.98828125 2.98828125 2.98828125H544.51953125c1.66992188 0 2.98828125-1.31835938 2.98828125-2.98828125v-139.13085938c0-1.66992188-1.31835938-2.98828125-2.98828125-2.98828124H374.5390625c-1.66992188 0-2.98828125 1.31835938-2.98828125 2.98828125z"  horiz-adv-x="1024" />

    
    <glyph glyph-name="level" unicode="&#59003;" d="M873.9996875 412.3959375l-172.5328125-11.919375c-4.156875-0.286875-8.3146875-0.5746875-12.32812501-2.94l4.98281251 290.6634375c-2.1534375 31.18125001-28.8215625 54.40124999-57.9234375 52.39124999l-279.830625-61.10531249c-29.101875-2.0109375-52.3228125-28.678125-50.169375-59.859375l16.3565625-115.83281251c-4.156875-0.286875-8.458125 1.50374999-12.61593751 1.21687501l-165.50343749-53.20687501c-31.18125001-2.1553125-54.40124999-28.8225-52.2478125-60.00187499l75.73124999-310.15125c2.154375-31.1803125 28.678125-52.3228125 57.78093751-50.31187501l613.2178125 42.36468751c29.101875 2.01 52.3228125 28.678125 50.311875 57.78l42.6946875 228.52125c-2.154375 31.1803125-28.8215625 54.40124999-57.924375 52.39125zM382.311875 92.28562499999998l-160.059375-11.0578125c-2.079375-0.1434375-2.221875 1.9359375-2.221875 1.93593749l-75.7321875 310.15031251c-0.1434375 2.0784375 1.935 2.221875 1.935 2.221875l175.8965625 53.925c2.0784375 0.1434375 2.221875-1.935 2.221875-1.935l57.96-355.2403125z m257.76 17.806875l-205.7925-14.21625001-78.1940625 527.19656251c-0.1434375 2.079375 1.935 2.221875 1.935 2.221875l281.9090625 61.24875c2.079375 0.1434375 2.221875-1.9340625 2.22187499-1.9340625l-2.07937499-574.516875z m195.3984375 13.4990625l-143.4309375-9.9084375 0.8325 229.8065625c-0.1425 2.0784375 1.935 2.221875 1.935 2.221875l180.8475 12.4940625c2.0784375 0.1434375 2.221875-1.935 2.22187499-1.935L835.3259375 125.671875c2.079375 0.1415625 2.221875-1.9359375 0.144375-2.0803125zM562.7309375 509.7225l-37.7559375-137.521875-43.44375001-3.0009375 37.73531251 141.2475-37.935-2.62125 13.81875 31.49625 46.790625 3.234375c6.226875 0.429375 11.330625-1.021875 15.3271875-4.35 4.2590625-3.55124999 6.6046875-8.559375 7.051875-15.0234375 0.2859375-4.0715625-0.2465625-8.5603125-1.5890625-13.460625zM314.2540625 292.1625c3.313125-14.6859375-1.0875-30.0140625-13.1934375-45.995625-10.205625-13.48874999-22.8703125-24.2071875-37.9978125-32.15062499l55.996875 12.63937499-3.0553125-25.7296875-85.47562501-19.29 1.77093751 24.920625c11.105625 7.7259375 21.8165625 18.6028125 32.12625 32.62968751 12.376875 16.8440625 17.3990625 30.429375 15.069375 40.74-2.4121875 10.7015625-7.7428125 15.1228125-15.98156251 13.26l-1.06218749-0.24093751c0.620625-1.4671875 1.01625001-2.6090625 1.20375-3.425625 1.258125-5.5715625 0.050625-10.7728125-3.616875-15.6196875-3.4340625-4.6125-8.0428125-7.5759375-13.82625-8.88-5.6765625-1.284375-11.0559375-0.575625-16.14 2.120625-5.338125 2.8134375-8.634375 7.0021875-9.89343751 12.5690625-2.0540625 9.114375 0.8128125 16.215 8.61375001 21.3 5.23874999 3.4790625 14.595 6.73874999 28.08 9.7846875 14.0821875 3.1790625 24.7753125 4.3546875 32.071875 3.5390625 13.87875001-1.5215625 22.3134375-8.9109375 25.3096875-22.1709375zM823.1478125 287.85375001l-29.20875-37.16531251c5.16375001-3.1753125 9.455625-7.5553125 12.8615625-13.15218749 3.691875-5.9709375 5.35874999-11.8096875 4.9921875-17.52281251-0.7846875-12.1359375-5.971875-21.5915625-15.553125-28.359375-8.0053125-5.6334375-18.4771875-9.0346875-31.4128125-10.2140625-8.2190625-0.75375001-17.55375001-0.56625001-28.0171875 0.5709375-5.43374999 0.6121875-10.0471875 2.77125001-13.8403125 6.4771875-3.9834375 3.916875-5.8003125 8.5340625-5.45812501 13.8346875 0.3496875 5.3428125 2.7459375 9.684375 7.1925 13.010625 4.2346875 3.1378125 9.02624999 4.5290625 14.37843751 4.1925 5.450625-0.3590625 10.07625001-2.3634375 13.8646875-6.0178125 3.988125-3.8671875 5.8134375-8.4853125 5.46375-13.835625-0.1584375-2.4675-0.766875-4.704375-1.8290625-6.6928125 5.7796875-0.0675 10.6771875 2.1 14.6775 6.4884375 3.8878125 4.2421875 6.0384375 9.4978125 6.4425 15.77812501 0.4715625 7.30124999-2.36624999 13.7390625-8.518125 19.30312499-5.1796875 4.6171875-10.8853125 7.4128125-17.1234375 8.38875l24.1453125 25.875-42.1321875 2.7178125 9.90562499 21.4490625 79.16906251-5.12624999z"  horiz-adv-x="1024" />

    
    <glyph glyph-name="more" unicode="&#59484;" d="M288 320a64 64 0 1 0-0.032 127.968A64 64 0 0 0 288 320z m224 0a64 64 0 1 0-0.032 127.968A64 64 0 0 0 512 320z m224 0a64 64 0 1 0-0.032 127.968A64 64 0 0 0 736 320z"  horiz-adv-x="1024" />

    
    <glyph glyph-name="like-fill" unicode="&#58985;" d="M819.51970605 495.63386552H648.90945811c-12.63779583 2.10629976-16.85039444 14.74409561-18.95669421 21.06299398V670.45671299c0 42.12598705-33.70078982 75.82677686-75.82677685 75.82677686-37.91338842 0-69.50787848-29.4881912-75.82677687-65.29528079-23.16929283-145.33465534-111.63386552-193.77954075-168.50394817-208.52363636 2.10629976-6.31889838 2.10629976-10.53149699 2.10629885-14.74409561v-408.62207458c0-8.42519722-2.10629976-16.85039444-6.31889745-25.2755926h412.83467318c40.0196882 8.42519722 67.40157963 23.16929283 86.35827385 63.18898103l86.35827386 303.30710744c16.85039444 54.76378288-10.53149699 107.42126692-71.61417825 105.31496714zM276.0944722 46.99210274999996V457.72047709c0 12.63779583-16.85039444 23.16929283-35.80708959 23.16929375H183.41729997c-29.4881912 0-54.76378288-25.27559259-54.76378288-54.76378379v-345.43309449c0-31.59449006 23.16929283-56.87008264 54.76378288-56.87008265h56.87008264c18.95669422 0 35.80708866 10.53149699 35.80708958 23.16929284z m-1e-8 0"  horiz-adv-x="1024" />

    
    <glyph glyph-name="logo" unicode="&#58919;" d="M819.52929687 496.67578125H253.68945312c-31.9921875 0-58.09570313 26.19140625-58.09570311 58.09570313V580.875c0 31.9921875 26.19140625 58.09570313 58.09570312 58.09570313h565.83984374c31.9921875 0 58.09570313-26.19140625 58.09570313-58.09570313v-26.10351563c0-31.90429689-26.19140625-58.09570313-58.09570313-58.09570312zM785.25195313 720.4453125H237.60546875c-67.8515625 0-123.3984375-55.546875-123.3984375-123.3984375v-428.20312499c0-67.8515625 55.546875-123.3984375 123.3984375-123.39843751h547.64648438c67.8515625 0 123.3984375 55.546875 123.3984375 123.39843751V597.046875c0 67.8515625-55.546875 123.3984375-123.3984375 123.3984375z m70.66406249-155.56640625H730.3203125L821.90234375 657.33984375c4.74609375-2.90039063 9.140625-6.41601563 13.18359375-10.37109376 13.44726563-13.44726563 20.83007813-31.11328125 20.83007813-49.92187499v-32.16796875z m-591.76757812 0l91.40625 102.83203125h53.87695313l-95.88867188-102.83203125H264.1484375z m217.44140625 102.83203125h148.7109375L529.578125 564.87890625H385.70117187l95.88867188 102.83203125z m218.671875 0h57.65625L656.140625 564.87890625h-52.73437501l98.87695314 100.8984375-2.02148438 1.93359375zM187.68359375 646.88085938c13.44726563 13.44726563 31.11328125 20.83007813 49.921875 20.83007812h47.37304688l-91.40625001-102.83203125h-26.71875v32.08007813c0.08789063 18.80859375 7.47070313 36.47460938 20.83007813 49.921875z m647.40234375-527.95898438c-13.44726563-13.44726563-31.11328125-20.83007813-49.921875-20.83007813h-547.55859375c-18.72070313 0-36.47460938 7.3828125-49.921875 20.83007813-13.44726563 13.44726563-20.83007813 31.11328125-20.83007813 49.92187501V512.14453125h688.97460938v-343.30078126c0.08789063-18.72070313-7.29492188-36.47460938-20.7421875-49.92187499zM414.00195312 156.71484375V455.27929689L531.42382813 387.515625c12.56835938-7.29492188 16.96289063-23.37890625 9.66796874-36.03515625-7.29492188-12.56835938-23.37890625-16.96289063-36.03515624-9.66796875l-38.3203125 22.1484375v-115.83984375l100.28320312 57.91992188-6.59179688 3.77929687c-12.56835938 7.29492188-16.96289063 23.37890625-9.66796874 36.03515625 7.29492188 12.56835938 23.37890625 16.96289063 36.03515624 9.66796875l85.69335938-49.48242188-258.48632813-149.32617187z"  horiz-adv-x="1024" />

    
    <glyph glyph-name="home" unicode="&#59656;" d="M865.17732426 521.40770975c0.10975057 11.30430839-4.17052154 22.71836735-12.84081632 31.27891156L543.27891157 744.31111112c-17.12108843 17.12108843-44.88798186 17.12108843-62.0090703 0L172.10249433 552.68662131c-6.58503402-6.58503402-10.64580499-14.81632653-12.18231292-23.37687074-0.54875284-1.64625851-0.76825398-3.40226757-0.76825397-5.15827665v-453.59909296c0-32.48616779 26.34013606-58.82630386 58.82630385-58.82630386h588.48253969c32.48616779 0 58.82630386 26.34013606 58.82630385 58.82630386V518.66394558c0.10975057 0.87800453 0 1.86575964-0.10975057 2.74376417z"  horiz-adv-x="1024" />

    
    <glyph glyph-name="user" unicode="&#59657;" d="M497.98004534 363.57732425999995c119.82040816 0 217.30884353 95.52562358 217.30884355 212.99773242 0 117.41950112-97.51383221 212.97142857-217.30884355 212.97142858s-217.28344671-95.57732427-217.28344669-212.97142858c0-117.44580499 97.48843537-212.99773243 217.28344669-212.99773241zM414.64126983 324.59319727c-151.31882086 0-264.29750566-102.05804989-264.29750565-250.25306121v-15.95555556c0-77.45396826 121.08571429-77.45396826 274.36643991-77.45396825h162.83265306c147.23900227 0 274.39183673 0 274.39183673 77.45396825v15.95555556c0 148.16870748-113.00408164 250.25306124-264.29750568 250.25306121h-182.99773242z"  horiz-adv-x="1024" />

    
    <glyph glyph-name="down" unicode="&#59660;" d="M763.55 507.566l-251.524-251.524-251.523 251.524 503.046-1e-8zM763.55 507.566z"  horiz-adv-x="1024" />

    
    <glyph glyph-name="share2" unicode="&#58939;" d="M835.4375 271.5v-126.5625c0-30.9375-25.3125-56.25-56.25-56.25H244.8125c-30.9375 0-56.25 25.3125-56.25 56.25V623.0625c0 30.9375 25.3125 56.25 56.25 56.25h182.8125c15.46875 0 28.125 12.65625 28.125 28.125s-12.65625 28.125-28.125 28.125H244.8125c-61.875 0-112.5-50.625-112.5-112.5v-478.125c0-61.875 50.625-112.5 112.5-112.5h534.375c61.875 0 112.5 50.625 112.5 112.5v126.5625c0 15.46875-12.65625 28.125-28.125 28.125s-28.125-12.65625-28.125-28.125zM796.0625 679.3125H610.4375c-15.46875 0-28.125 12.65625-28.125 28.125s12.65625 28.125 28.125 28.125h253.125c8.4375 0 15.46875-2.8125 19.6875-8.4375 5.625-4.21875 8.4375-11.25 8.4375-19.6875v-253.125c0-15.46875-12.65625-28.125-28.125-28.125s-28.125 12.65625-28.125 28.125V639.9375L416.375 219.46875c-11.25-11.25-28.125-11.25-39.375 0s-11.25 28.125 0 39.375L796.0625 679.3125z"  horiz-adv-x="1024" />

    
    <glyph glyph-name="image" unicode="&#58892;" d="M859.3 682.8H164.7c-20.2 0-36.7-16.5-36.7-36.7v-524.3c0-20.2 16.5-36.7 36.7-36.7h694.7c20.2 0 36.7 16.5 36.7 36.7V646.2c-0.1 20.2-16.6 36.6-36.8 36.6z m-13.9-50.6v-282.4l-107.9 87.1c-13.5 10.9-33.1 10.8-46.5-0.3L566.5 333.1 408.8 382c-7.5 2.3-15.3 2.2-22.7-0.3l-207.5-70.9V632.2h666.8zM178.6 135.79999999999995V257.29999999999995l219.5 75.1 160.6-49.8c11.9-3.7 24.7-1.2 34.3 6.8l121.6 101 130.8-105.6v-149H178.6z"  horiz-adv-x="1024" />

    
    <glyph glyph-name="hot-fill" unicode="&#59663;" d="M368.96412852 12.420530569999983c75.47053096 0 164.5830123-0.04766748 262.29906122-0.04766749 406.81038252 230.15395547 101.19758818 574.56014854 47.98246817 613.35084815 17.72248448-38.79159961 21.11678261-104.44888388-14.75179804-136.35744961C603.83088828 719.33224453 453.89894258 766.46568838 453.89894258 766.46568838c17.72248448-118.58819678-64.29021153-248.30005254-143.37988857-345.2066499-2.78091474 47.27464805-5.75070117 79.93780224-30.59005958 125.18612402-5.5618295-85.92504258-71.21911377-155.96595528-89.0360332-242.03220205-24.08566992-116.56097138 18.05256036-201.92029805 178.02349981-292.08776485L368.96412852 12.420530569999983z"  horiz-adv-x="1024" />

    
    <glyph glyph-name="plus" unicode="&#58959;" d="M847.39999987 431.59357427H559.59357427V719.39999987c0 26.34109772-21.55180722 47.89290494-47.89290492 47.89290492s-47.89290494-21.55180722-47.89290495-47.89290492v-287.65676027H176.15100416c-26.34109772 0-47.89290494-21.55180722-47.89290493-47.89290494s21.55180722-47.89290494 47.89290493-47.89290492h287.65676024v-287.65676025c0-26.34109772 21.55180722-47.89290494 47.89290495-47.89290494s47.89290494 21.55180722 47.89290492 47.89290494V335.8077644H847.25033452c26.34109772 0 47.89290494 21.55180722 47.89290495 47.89290495 0.14966534 26.34109772-21.40214189 47.89290494-47.7432396 47.89290492z"  horiz-adv-x="1024" />

    
    <glyph glyph-name="check-fill" unicode="&#59260;" d="M512 765.54144287C301.30055141 765.54144287 130.45855713 594.69944859 130.45855713 384s170.84199428-381.54144287 381.54144287-381.54144287 381.54144287 170.84199428 381.54144287 381.54144287S722.69944859 765.54144287 512 765.54144287z m192.72952795-285.21926165L473.50519371 249.09784699c-5.28026104-5.28026104-12.26383209-7.92039157-19.24740314-7.92039157s-13.9671421 2.64013053-19.33256865 7.92039157L319.27047205 364.75259686000004c-10.56052208 10.56052208-10.56052208 27.93428421 1e-8 38.57997179 10.56052208 10.56052208 27.93428421 10.56052208 38.57997178 0l96.40734673-96.32218123L666.14955616 518.90215301c10.56052208 10.56052208 27.93428421 10.56052208 38.57997179 0 10.56052208-10.64568758 10.56052208-27.93428421 0-38.57997179z"  horiz-adv-x="1024" />

    
    <glyph glyph-name="star-fill" unicode="&#59665;" d="M512.81576753 858.70953199c-12.8009299 0-22.93170292-3.79162276-30.25584433-11.5410114-7.45962716-7.5842345-13.23211079-16.86846888-17.16218612-27.42152225L349.18756477 551.4446899 37.26676017 523.44265576c-7.32414144-1.40331578-14.07073783-4.64706193-20.11913764-9.97353045-6.05532244-5.36009272-9.86474626-12.66742206-11.1286205-22.09505372-1.40232684-9.28423438 0.85642811-18.44188355 6.48551439-27.44822383 5.77446149-8.98755027 12.65753257-17.1483409 20.66701427-24.6237912l11.12862052-9.4276317 25.75119077-22.09208691c10.55206443-8.98458344 22.22757264-18.98679333 35.44880499-29.95421549l39.81401704-33.49365679c31.65817116-26.71046938 67.24345088-57.10081049 107.06537949-91.14531078l-34.32239436-140.14170063c-4.77958084-17.99784635-9.28917912-35.58429073-13.64549065-53.03821622-4.35433363-17.30953922-8.31308844-33.18906114-11.68045293-47.56241674-3.37824293-14.3456651-6.33222761-26.57300573-8.99743975-36.98661759l-5.06736442-19.56236049c-1.41814999-5.91291408-0.70116341-11.81692761 1.96503769-17.44799179 2.67707951-5.63501996 6.89394949-10.55503128 12.66742202-14.48411769 5.63106419-4.09325161 12.08888808-6.48551439 19.12326805-7.6099471 1.56649204-0.22152411 3.1191388-0.30360674 4.66782982-0.30360675 5.41547373 0 10.76567699 1.3192553 16.02489711 3.81832433 3.37824293 1.42803945 9.99133147 4.77859188 19.70180199 10.00122096 9.84101154 5.3304243 21.37806717 12.09284386 34.88609415 20.11221501 13.36858546 8.02629377 28.43222607 16.59848634 44.89423775 26.02512913 16.45311113 9.28522333 33.19005007 18.71285502 49.926989 28.00203414 39.12867677 21.95165641 82.45543352 46.98882749 130.29772224 74.98591684l263.51580499-152.0921361 14.64927184-5.46887689c6.32332708-2.38929593 11.23839363-3.51570659 14.61861449-3.51570656 10.1406625 0 19.13711327 2.25282124 27.3008707 6.45683494 8.00849275 4.36620099 11.12070896 13.21332078 8.99941765 26.59871836-0.70215236 2.66916792-1.96305978 9.14578182-3.93205326 19.56236046l-7.60994712 37.39604165c-3.09441514 14.78871337-6.31937131 31.11029453-9.56113955 49.1101188-3.37824293 18.02158106-7.16986571 36.02239428-11.11675316 54.02024059-8.86195401 42.78481379-18.85031866 90.49062787-30.37649588 143.07986215l209.07031722 186.1475148c8.72053459 10.13967354 15.89633399 18.57934719 21.66585073 25.61076031 5.76852782 7.03339102 8.5860378 15.19714844 8.5860378 24.48533861 0 9.97353044-2.67510162 17.31052817-8.02629383 22.09109796-5.49360057 4.64805089-14.9162875 8.57219254-28.27597244 11.95636915l-312.05826819 28.9880143-112.99807248 268.30131949c-1.40232684 2.66719004-3.22891193 5.9069804-5.62117474 9.97353045-2.38830697 3.93007536-5.2038391 8.02629377-8.58801568 11.9553802-3.37725397 4.09127373-7.58324555 7.60698028-12.51215738 10.54909757C525.47428907 857.16974154 519.56533078 858.70953199 512.81576753 858.70953199"  horiz-adv-x="1025" />

    


  </font>
</defs>
</svg>
